<?xml version="1.0" encoding="UTF-8" standalone="no"?>
<!-- Created with Inkscape (http://www.inkscape.org/) -->

<svg
   xmlns:dc="http://purl.org/dc/elements/1.1/"
   xmlns:cc="http://creativecommons.org/ns#"
   xmlns:rdf="http://www.w3.org/1999/02/22-rdf-syntax-ns#"
   xmlns:svg="http://www.w3.org/2000/svg"
   xmlns="http://www.w3.org/2000/svg"
   xmlns:xlink="http://www.w3.org/1999/xlink"
   xmlns:sodipodi="http://sodipodi.sourceforge.net/DTD/sodipodi-0.dtd"
   xmlns:inkscape="http://www.inkscape.org/namespaces/inkscape"
   width="800"
   height="600"
   id="svg2"
   version="1.1"
   inkscape:version="0.48.4 r9939"
   sodipodi:docname="below.svg"
   inkscape:export-filename="C:\Users\matthew\Desktop\ug_2.png"
   inkscape:export-xdpi="90"
   inkscape:export-ydpi="90">
  <defs
     id="defs4">
    <linearGradient
       inkscape:collect="always"
       id="linearGradient6607">
      <stop
         style="stop-color:#7eba70;stop-opacity:1;"
         offset="0"
         id="stop6609" />
      <stop
         style="stop-color:#7eba70;stop-opacity:0;"
         offset="1"
         id="stop6611" />
    </linearGradient>
    <linearGradient
       inkscape:collect="always"
       id="linearGradient6569">
      <stop
         style="stop-color:#7eba70;stop-opacity:1;"
         offset="0"
         id="stop6571" />
      <stop
         style="stop-color:#7eba70;stop-opacity:0;"
         offset="1"
         id="stop6573" />
    </linearGradient>
    <linearGradient
       inkscape:collect="always"
       id="linearGradient4228">
      <stop
         style="stop-color:#7ab86a;stop-opacity:1;"
         offset="0"
         id="stop4230" />
      <stop
         style="stop-color:#7ab86a;stop-opacity:0;"
         offset="1"
         id="stop4232" />
    </linearGradient>
    <linearGradient
       inkscape:collect="always"
       id="linearGradient4027">
      <stop
         style="stop-color:#7ab76b;stop-opacity:1;"
         offset="0"
         id="stop4029" />
      <stop
         style="stop-color:#7ab76b;stop-opacity:0;"
         offset="1"
         id="stop4031" />
    </linearGradient>
    <linearGradient
       id="linearGradient3923">
      <stop
         style="stop-color:#9bb7ec;stop-opacity:1;"
         offset="0"
         id="stop3925" />
      <stop
         style="stop-color:#88a0cd;stop-opacity:1;"
         offset="1"
         id="stop3927" />
    </linearGradient>
    <linearGradient
       id="linearGradient3781">
      <stop
         style="stop-color:#dbcdff;stop-opacity:1;"
         offset="0"
         id="stop3783" />
      <stop
         style="stop-color:#ffd2f0;stop-opacity:1;"
         offset="1"
         id="stop3785" />
    </linearGradient>
    <linearGradient
       inkscape:collect="always"
       xlink:href="#linearGradient4228"
       id="linearGradient4248"
       gradientUnits="userSpaceOnUse"
       x1="1069.0559"
       y1="320.04987"
       x2="1063.7367"
       y2="292.19275" />
    <linearGradient
       inkscape:collect="always"
       xlink:href="#linearGradient4027"
       id="linearGradient4250"
       gradientUnits="userSpaceOnUse"
       gradientTransform="translate(540,452.36218)"
       x1="427.49631"
       y1="315.96353"
       x2="425.9451"
       y2="294.53494" />
    <linearGradient
       inkscape:collect="always"
       xlink:href="#linearGradient6607"
       id="linearGradient6621"
       gradientUnits="userSpaceOnUse"
       x1="2051.0391"
       y1="448.52512"
       x2="2047.2123"
       y2="405.08856" />
    <linearGradient
       inkscape:collect="always"
       xlink:href="#linearGradient6569"
       id="linearGradient5472"
       gradientUnits="userSpaceOnUse"
       gradientTransform="translate(22.857142,758.07647)"
       x1="2050.5913"
       y1="442.4942"
       x2="2051.4229"
       y2="398.20847" />
  </defs>
  <sodipodi:namedview
     id="base"
     pagecolor="#ffffff"
     bordercolor="#666666"
     borderopacity="1.0"
     inkscape:pageopacity="0.0"
     inkscape:pageshadow="2"
     inkscape:zoom="0.35000001"
     inkscape:cx="1830.8459"
     inkscape:cy="291.40629"
     inkscape:document-units="px"
     inkscape:current-layer="layer1"
     showgrid="true"
     inkscape:window-width="1366"
     inkscape:window-height="706"
     inkscape:window-x="-8"
     inkscape:window-y="-8"
     inkscape:window-maximized="1"
     inkscape:snap-grids="false">
    <inkscape:grid
       type="xygrid"
       id="grid6001"
       empspacing="5"
       visible="true"
       enabled="true"
       snapvisiblegridlinesonly="true"
       spacingx="800px"
       spacingy="600px" />
  </sodipodi:namedview>
  <metadata
     id="metadata7">
    <rdf:RDF>
      <cc:Work
         rdf:about="">
        <dc:format>image/svg+xml</dc:format>
        <dc:type
           rdf:resource="http://purl.org/dc/dcmitype/StillImage" />
        <dc:title></dc:title>
      </cc:Work>
    </rdf:RDF>
  </metadata>
  <g
     inkscape:label="Layer 1"
     inkscape:groupmode="layer"
     id="layer1"
     transform="translate(0,-452.36218)">
    <rect
       style="fill:#ccc1b6;fill-opacity:1;stroke:none"
       id="rect4013"
       width="854.58905"
       height="234.35539"
       x="-16.162441"
       y="428.08792" />
    <path
       style="fill:#ddd5ca;fill-opacity:1;stroke:none"
       d="m -10.092526,1089.995 c -3.72779,-155.48952 -46.005552,-319.5344 -14.14184,-461.25366 5.945206,-26.44232 0.868119,-109.11258 12.121576,-125.79647 2.3056421,-3.41825 45.019622,23.96122 56.567355,23.96122 95.658325,0 286.259035,-51.3759 379.809385,17.97092 20.19726,14.97181 70.53032,-20.05607 98.99287,-5.99031 33.71363,16.66082 116.30708,-1.92456 151.5197,-14.97575 17.34853,-6.43005 54.05762,54.63842 60.60788,44.92729 21.86544,-32.41674 -0.60844,-29.95154 28.28367,-29.95154 7.70601,0 72.72946,-4.51408 72.72946,-2.99513 0,49.49492 31.67856,83.15412 36.36473,131.78675 2.71428,28.16861 -20.6673,411.02498 -32.3242,428.30688 -23.72296,35.1708 -229.20116,29.3306 -268.69494,20.9662 -76.35984,-16.1725 -188.59262,-33.7701 -264.65441,-14.9758 -46.5384,11.4992 -110.54797,24.937 -157.58048,14.9758 -42.19929,-8.9376 -121.376001,-49.6246 -159.600756,-26.9564 z"
       id="path4011"
       inkscape:connector-curvature="0" />
    <path
       style="fill:#ac9f91;stroke:none;stroke-width:1px;stroke-linecap:butt;stroke-linejoin:miter;stroke-opacity:1;fill-opacity:1"
       d="M 338.57143,351.42857 C 357.1003,346.1979 375.54945,350 394.28571,350 c 11.42858,0 22.85715,0 34.28572,0 29.90696,0 65.8896,4.63634 52.85714,-21.42857 -2.11909,-4.23819 -2.81326,-15.69235 -8.57143,-18.57143 -24.14184,-12.07092 -89.97879,-1.42857 -117.14285,-1.42857 -3.71977,0 -26.72979,-0.41307 -27.14286,0 -2.50869,2.50869 0.0607,15.59279 -1.42857,18.57143 -1.37803,2.75604 -12.45496,21.83076 -10,24.28571 0.48949,0.48949 16.57378,0 21.42857,0 z"
       id="path3979"
       inkscape:connector-curvature="0"
       transform="translate(0,452.36218)" />
    <path
       style="fill:#8f7c66;stroke:none;stroke-width:1px;stroke-linecap:butt;stroke-linejoin:miter;stroke-opacity:1;fill-opacity:1"
       d="m 317.14286,362.85714 c 23.7165,2.41296 50.85938,-3.04687 72.85714,4.28572 6.19893,2.06631 121.23029,2.65886 94.28571,-24.28572 -7.07908,-7.07908 -20.50241,1.73729 -30,-1.42857 C 448.61348,339.53783 326.03131,333.96869 320,340 c -4.91814,4.91814 -4.13547,15.18715 -2.85714,22.85714 z"
       id="path3981"
       inkscape:connector-curvature="0"
       transform="translate(0,452.36218)" />
    <path
       style="fill:#8f7e94;fill-opacity:1;stroke:none"
       d="m 275.24728,900.93361 c 11.32933,-35.82285 40.48011,-60.05916 56.46573,-82.93678 20.73905,-29.68042 -10.40158,-265.4022 -10.40158,-312.60789 0,-23.72782 12.8296,-111.36071 2.97188,-125.46846 -10.37206,-14.84385 -29.97254,3.37143 -43.09227,12.7595 -7.95863,5.69494 -2.97188,72.67717 -2.97188,85.06336 0,92.27108 -10.40158,187.04628 -10.40158,278.58255 0,39.77269 16.32584,112.77874 7.4297,144.60772 z"
       id="path3969"
       inkscape:connector-curvature="0" />
    <path
       style="fill:#8f7e94;fill-opacity:1;stroke:none"
       d="m 528.4515,875.21933 c -17.0027,-12.34346 -61.51634,-91.67178 -69.0934,-114.01913 -5.48748,-16.18443 -15.05827,-372.72052 -2.45556,-391.30538 6.36748,-9.38993 76.00677,48.66718 76.00677,62.68739 0,33.20103 -1.5698,431.98995 -4.45781,442.63712 z"
       id="path3971"
       inkscape:connector-curvature="0"
       sodipodi:nodetypes="csssc" />
    <path
       style="fill:#a691ac;fill-opacity:1;stroke:none"
       d="m 284.16293,880.25113 c -30.23049,3.38252 -198.305549,34.0436 -212.489457,14.4031 -2.935517,-4.06482 14.470025,-217.224 10.401581,-251.02554 -7.039867,-58.48875 -32.115101,-178.70096 -2.97188,-232.50724 52.136276,-96.25769 155.597356,-105.5273 211.003506,-28.80621 11.17379,15.47237 -13.98564,431.12216 -5.94375,497.93589 z"
       id="path3975"
       inkscape:connector-curvature="0" />
    <path
       style="fill:#a691ac;fill-opacity:1;stroke:none"
       d="m 515.9696,859.78773 c 35.09053,43.38101 98.73674,32.1378 147.10808,32.1378 13.37346,0 53.49385,0 40.12039,0 -1.17966,0 1.60901,-19.63756 4.45781,-27.85274 5.16184,-14.8853 0,-61.15171 0,-77.13074 0,-65.13077 0.14265,-151.00477 8.91565,-214.25199 4.34812,-31.34694 21.57258,-132.75999 11.88752,-160.689 -6.85626,-19.77156 -78.39045,0.10513 -93.61424,-4.28504 -32.89803,-9.48689 -81.19571,-0.68845 -109.95957,-21.42521 -1.67935,-1.21069 -11.34337,-5.06962 -13.37346,-2.14251 -2.4134,3.47978 0,43.05621 0,49.27795 0,75.46514 7.20096,162.3381 -2.97188,235.67722 -8.32809,60.03981 7.4297,128.47786 7.4297,190.68426 z"
       id="path3977"
       inkscape:connector-curvature="0" />
    <path
       style="fill:#3d3d3d;fill-opacity:1;stroke:none"
       d="M 584.28571,1349.505 C 583.90823,1328.6926 590,1308.6826 590,1288.0765 c 0,-19.6415 4.28571,-39.1352 4.28571,-55.7143 0,-10.6086 -8.41702,-55.8687 -2.85714,-61.4286 8.4699,-8.4699 18.12012,-7.1429 32.85714,-7.1429 56.63042,0 44.69004,98.7871 31.42858,138.5715 -5.44781,16.3434 -0.0425,35.7568 -11.42858,47.1428 -11.45037,11.4504 -46.3701,0 -60,0 z"
       id="path3985"
       inkscape:connector-curvature="0"
       inkscape:export-filename="C:\Users\matthew\Projects\disconnected_worlds\src\working\rdoor2.png"
       inkscape:export-xdpi="90"
       inkscape:export-ydpi="90" />
    <path
       style="fill:#3d3d3d;fill-opacity:1;stroke:none"
       d="m 144.28572,1372.3622 c -12.25508,-29.638 -1.42858,-62.7642 -1.42858,-92.8572 0,-12.0175 30.24335,-145.9576 31.42858,-147.1428 7.79489,-7.7949 31.33156,-8.6685 40,0 7.15094,7.1509 25.32319,4.9321 31.42857,17.1428 7.08067,14.1614 -37.14286,128.6528 -37.14286,174.2857 0,7.2301 0.80346,40.6252 -4.28571,45.7143 -8.2376,8.2376 -46.65248,2.8572 -60,2.8572 z"
       id="path3987"
       inkscape:connector-curvature="0"
       inkscape:export-filename="C:\Users\matthew\Projects\disconnected_worlds\src\working\ldoor2.png"
       inkscape:export-xdpi="90"
       inkscape:export-ydpi="90" />
    <path
       style="fill:#8f7c66;fill-opacity:1;stroke:none"
       d="m 10.143578,941.51827 c 0.872616,5.29929 -0.6318245,17.4197 3.022979,21.40015 0.01943,0.0212 10.189804,-3.29234 12.091914,-3.29234 31.617883,0 59.745525,-4.24501 92.200839,1.64618 176.56311,32.04918 379.64518,20.88914 556.22806,-6.58467 39.83365,-6.19755 143.59148,19.33634 143.59148,-19.75398"
       id="path3963"
       inkscape:connector-curvature="0" />
    <path
       style="fill:#ac9f91;fill-opacity:1;stroke:none"
       d="m 11.655067,950.93361 c 114.544553,-11.96279 231.629973,-8.57143 347.642533,-8.57143 45.80864,0 91.80127,-2.85714 137.54551,-2.85714 37.17256,0 74.75227,-3.89587 111.85022,0 16.69215,1.75294 211.18969,5.07737 211.6085,4.28572 1.82472,-3.44924 -46.7459,-39.92184 -52.90213,-44.28572 -10.26259,-7.2747 -19.46132,-24.91114 -30.22979,-30 -25.65155,-12.12218 -163.79505,-2.45635 -194.98211,0 -130.06641,10.24427 -267.49408,17.14286 -397.52167,17.14286 -36.88822,0 -141.0044489,18.95642 -133.011063,64.28571 z"
       id="path3961"
       inkscape:connector-curvature="0" />
    <path
       style="fill:none;stroke:#8b806d;stroke-width:5.19999981;stroke-linecap:butt;stroke-linejoin:miter;stroke-miterlimit:4;stroke-opacity:1;stroke-dasharray:none"
       d="m 145.71429,895.21932 c -10.9325,8.37465 -24.07744,17.95395 -31.42858,27.14286"
       id="path3989"
       inkscape:connector-curvature="0" />
    <path
       style="fill:none;stroke:#8b806d;stroke-width:5.19999981;stroke-linecap:butt;stroke-linejoin:miter;stroke-miterlimit:4;stroke-opacity:1;stroke-dasharray:none"
       d="m 190,900.93361 c -4.41285,9.50609 -18.83985,20.26842 -22.85714,24.28571"
       id="path3991"
       inkscape:connector-curvature="0" />
    <path
       style="fill:none;stroke:#8b806d;stroke-width:5.19999981;stroke-linecap:butt;stroke-linejoin:miter;stroke-miterlimit:4;stroke-opacity:1;stroke-dasharray:none"
       d="m 347.14286,889.50504 c -1.07377,10.9692 -1.42857,25.97151 -1.42857,34.28571"
       id="path3993"
       inkscape:connector-curvature="0" />
    <path
       style="fill:none;stroke:#8b806d;stroke-width:5.20000000000000020;stroke-linecap:butt;stroke-linejoin:miter;stroke-opacity:1;stroke-miterlimit:4;stroke-dasharray:none"
       d="m 411.42857,438.57143 c 4.6064,15.55119 2.45913,34.53873 12.85714,42.85714"
       id="path3995"
       inkscape:connector-curvature="0"
       transform="translate(0,452.36218)" />
    <path
       style="fill:none;stroke:#8b806d;stroke-width:5.20000000000000020;stroke-linecap:butt;stroke-linejoin:miter;stroke-opacity:1;stroke-miterlimit:4;stroke-dasharray:none"
       d="m 498.57143,430 c 17.14045,14.87428 26.26099,35.24246 37.14286,54.28571"
       id="path3997"
       inkscape:connector-curvature="0"
       transform="translate(0,452.36218)" />
    <path
       style="fill:none;stroke:#8b806d;stroke-width:5.20000000000000020;stroke-linecap:butt;stroke-linejoin:miter;stroke-opacity:1;stroke-miterlimit:4;stroke-dasharray:none"
       d="m 600,424.28571 c 22.06425,18.8108 41.86882,39.20934 64.28571,57.14286"
       id="path3999"
       inkscape:connector-curvature="0"
       transform="translate(0,452.36218)" />
    <path
       style="fill:none;stroke:#8b806d;stroke-width:5.20000000000000020;stroke-linecap:butt;stroke-linejoin:miter;stroke-opacity:1;stroke-miterlimit:4;stroke-dasharray:none"
       d="M 668.57143,424.28571 C 690.77496,433.2995 702.21662,455.77329 720,470"
       id="path4001"
       inkscape:connector-curvature="0"
       transform="translate(0,452.36218)" />
    <path
       style="fill:none;stroke:#8b806d;stroke-width:5.20000000000000020;stroke-linecap:butt;stroke-linejoin:miter;stroke-opacity:1;stroke-miterlimit:4;stroke-dasharray:none"
       d="M 361.42857,310 C 354.56459,317.93306 348.51176,324.31555 340,328.57143"
       id="path4003"
       inkscape:connector-curvature="0"
       transform="translate(0,452.36218)" />
    <path
       style="fill:none;stroke:#8b806d;stroke-width:5.20000000000000020;stroke-linecap:butt;stroke-linejoin:miter;stroke-opacity:1;stroke-miterlimit:4;stroke-dasharray:none"
       d="m 390,310 c 0.44922,7.28381 -0.46875,13.28122 -1.42857,20"
       id="path4005"
       inkscape:connector-curvature="0"
       transform="translate(0,452.36218)" />
    <path
       style="fill:none;stroke:#8b806d;stroke-width:5.19999981;stroke-linecap:butt;stroke-linejoin:miter;stroke-miterlimit:4;stroke-opacity:1;stroke-dasharray:none"
       d="m 422.85714,762.36218 c 0.61975,10.65816 4.17154,22.66684 8.57143,30"
       id="path4007"
       inkscape:connector-curvature="0" />
    <g
       id="g4264"
       transform="matrix(1,0,0,0.14460188,1.4285869,356.36494)"
       inkscape:export-filename="C:\Users\matthew\Projects\disconnected_worlds\src\working\hangrope.png"
       inkscape:export-xdpi="90"
       inkscape:export-ydpi="90">
      <path
         transform="translate(0,452.36218)"
         inkscape:connector-curvature="0"
         id="path3983"
         d="m 397.14286,-15.714286 c -11.45759,45.147776 7.14285,85.198319 7.14285,129.999996 0,28.34188 -5.71428,60.50544 -5.71428,91.42858 0,31.64419 -7.14286,61.92853 -7.14286,91.42857 0,23.71409 4.28572,41.2533 4.28572,64.28571 0,12.92694 5.59505,33.0956 0,44.28572 -0.87806,1.7561 -1.42858,7.67766 -1.42858,5.71428 0,-11.51457 20.83759,0 18.57143,0 -5.40781,0 -7.14285,-66.31685 -7.14285,-75.71428 0,-27.77428 -3.8191,-53.79038 8.57142,-78.57143 2.84673,-5.69345 -7.14285,-174.623361 -7.14285,-192.857146 0,-14.451103 4.32949,-74.2682013 -10,-80 z"
         style="fill:#e09307;fill-opacity:1;stroke:none" />
    </g>
    <g
       id="g6899"
       transform="translate(-400,0)"
       inkscape:export-filename="C:\Users\matthew\Projects\disconnected_worlds\src\working\red2.png"
       inkscape:export-xdpi="90"
       inkscape:export-ydpi="90">
      <path
         inkscape:connector-curvature="0"
         id="path6883"
         d="m 312.85714,909.50504 c 23.82337,10.2913 -13.85723,11.80182 -8.57143,17.78372 5.31496,6.0149 33.80903,3.77119 38.57143,14.55032 2.90706,6.57979 -31.42602,-0.80978 -35.71428,1.6167 -12.06626,6.82765 -54.53748,-0.98282 -61.42858,1.6167"
         style="fill:#8f7c66;fill-opacity:1;stroke:none" />
      <g
         inkscape:export-ydpi="90"
         inkscape:export-xdpi="90"
         inkscape:export-filename="C:\Users\matthew\Desktop\dude1.png"
         id="g4152">
        <path
           style="fill:#ff909e;fill-opacity:1;stroke:none"
           d="m 269.28571,915.21932 c 4.69201,-10.89545 6.35161,-23.26357 9.28572,-35 2.37654,-9.50615 18.85942,-35.13829 14.28571,-44.28571 -1.34005,-2.6801 -83.98453,-29.88807 -86.42857,-25 -10.27482,20.54965 -18.52358,48.42789 -25.71428,70 -0.4557,1.36708 -3.31522,6.68478 -2.14286,7.85714 9.3252,9.32521 76.64315,32.05702 90.71428,26.42857 z"
           id="path4150"
           inkscape:connector-curvature="0" />
        <path
           inkscape:connector-curvature="0"
           id="path4112"
           d="m 269.20565,913.97128 c 13.53941,-0.38199 41.29099,-15.27755 52.52794,-4.04061 3.17962,3.17962 -12.10196,3.52891 -13.63706,4.04061 -8.39977,2.79992 -19.26299,0.19172 -27.7792,3.03046 -3.31566,1.10522 -8.12805,-0.48166 -11.11168,1.01015 -1.53566,0.76784 -5.05076,2.72708 -5.05076,1.01015 0,-2.38095 3.36718,-3.36717 5.05076,-5.05076 z"
           style="fill:#dd747e;fill-opacity:1;stroke:none" />
        <path
           sodipodi:nodetypes="cssssssssssssscc"
           inkscape:connector-curvature="0"
           id="path4116"
           d="m 215.98809,894.50067 c 67.89283,34.41203 -10.25568,35.81305 -19.96669,45.52406 -6.39594,6.39594 -13.30159,31.69957 -7.18801,43.92673 5.34427,10.68853 3.45073,20.49404 16.77202,27.15474 3.15261,1.5763 29.03276,1.878 23.16136,-3.9934 -2.42695,-2.427 -9.20818,-1.2215 -11.98001,-3.9933 -17.85266,-17.85268 -17.57069,-25.79989 -17.57069,-47.92008 0,-6.43819 30.26714,-20.04892 37.53738,-12.77868 18.63137,18.63136 -31.24185,19.77907 -19.16802,43.92672 5.06683,10.13367 23.85104,34.79654 39.13471,27.15474 12.60876,-6.3044 -22.63979,-25.8345 -26.35603,-29.55074 -6.93897,-6.93898 17.98131,-21.97464 20.76536,-24.7587 5.29972,-5.29972 -0.22487,-18.94315 5.59067,-24.7587 4.67976,-4.67975 13.31635,-5.46017 19.9667,-8.78534 3.85897,-1.92949 80.9417,18.64561 70.28276,7.98667 4.68629,-6.97671 -81.11861,-17.40103 -130.98151,-39.13472 z"
           style="fill:#ff909e;fill-opacity:1;stroke:none" />
        <path
           inkscape:connector-curvature="0"
           id="path4118"
           d="m 175.25604,889.70866 c 26.60493,-8.39249 64.09584,-31.14804 91.04812,-31.14804 3.8903,0 0.16009,19.16803 -30.34938,19.16803 -20.84861,0 -39.47108,11.98001 -60.69874,11.98001 z"
           style="fill:#8f7477;fill-opacity:1;stroke:none" />
        <path
           style="fill:#f3f3f3;fill-opacity:1;stroke:none"
           d="m 220,855.93361 c -35.16418,-39.01685 70.34086,-24.81329 19.28571,0.71428 -5.71239,2.8562 -13.80691,2.573 -19.28571,-0.71428 z"
           id="path4144"
           inkscape:connector-curvature="0" />
        <path
           style="fill:#343434;fill-opacity:1;stroke:none"
           d="m 225.71429,848.07647 c 5.31006,-22.15104 26.42184,10.56873 0,0 z"
           id="path4146"
           inkscape:connector-curvature="0" />
      </g>
    </g>
    <g
       id="g6963"
       transform="translate(-620,0)"
       inkscape:export-filename="C:\Users\matthew\Projects\disconnected_worlds\src\working\red.png"
       inkscape:export-xdpi="90.000008"
       inkscape:export-ydpi="90.000008">
      <path
         inkscape:connector-curvature="0"
         id="path6887"
         d="m 312.85714,900.93361 c -5.03913,-1.66314 4.67043,5.32958 2.85715,7.14286 -1.3673,1.36729 -13.40452,8.02406 -11.42858,10 2.62558,2.62557 47.52431,13.18998 36.42858,24.28571 -7.68203,7.68203 -56.42858,-2.98023 -56.42858,0 0,1.777 -48.54599,2.48729 -43.57143,0"
         style="fill:#8f7c66;fill-opacity:1;stroke:none"
         sodipodi:nodetypes="cssssc" />
      <g
         inkscape:export-ydpi="90"
         inkscape:export-xdpi="90"
         inkscape:export-filename="C:\Users\matthew\Desktop\dude2.png"
         transform="translate(600,0)"
         id="g4172">
        <path
           style="fill:#ff909e;fill-opacity:1;stroke:none"
           d="m -332.14286,460 c -0.0513,-14.19592 12.77957,-24.76727 17.14286,-37.85714 1.25691,-3.77072 12.62737,-28.8012 9.28571,-32.14286 -5.68019,-5.6802 -80.18419,-36.95866 -82.14285,-35 -15.9312,15.9312 -23.06166,46.02105 -35.71429,65 -1.33177,1.99766 -5.51585,6.11116 -4.28571,8.57143 1.75931,3.51862 13.81096,5.15969 17.85714,7.85714 22.68305,15.12204 48.81331,35.18896 77.85714,23.57143 z"
           id="path4148"
           inkscape:connector-curvature="0"
           transform="translate(0,452.36218)" />
        <path
           style="fill:#8f7477;fill-opacity:1;stroke:none"
           d="m -427.14286,429.28571 c 19.8602,2.62189 73.78854,-32.64003 87.85715,-18.57142 16.2382,16.2382 -78.99848,20.04787 -87.85715,18.57142 z"
           id="path4138"
           inkscape:connector-curvature="0"
           transform="translate(0,452.36218)" />
        <path
           style="fill:#f3f3f3;fill-opacity:1;stroke:none"
           d="m -382.85714,856.64789 c -5.60866,-0.5155 -12.42652,-12.57347 -7.14286,-17.85714 24.9588,-24.9588 47.96612,17.85714 7.14286,17.85714 z"
           id="path4140"
           inkscape:connector-curvature="0" />
        <path
           style="fill:#343434;fill-opacity:1;stroke:none"
           d="m -381.42857,392.85714 c 0.80329,-25.93783 22.26816,17.81453 0,0 z"
           id="path4142"
           inkscape:connector-curvature="0"
           transform="translate(0,452.36218)" />
        <path
           style="fill:#dd747e;fill-opacity:1;stroke:none"
           d="m -340,912.36218 c 6.16783,-0.78966 11.83395,-2.5648 17.85714,-4.28571 5.45259,-1.55789 10.99481,-2.92728 16.42857,-4.28572 63.56252,-15.89063 -24.97087,31.85852 -34.28571,8.57143 z"
           id="path4170"
           inkscape:connector-curvature="0" />
        <path
           style="fill:#ff909e;fill-opacity:1;stroke:none"
           d="m -355.71429,907.36218 c -6.37158,40.30137 -80.10661,14.68017 -55.71428,87.85714 2.77303,8.31908 22.75795,22.54958 30.71428,18.57138 9.09637,-4.5481 -51.98137,-56.64746 4.28572,-70.71423 36.71879,-9.1797 -5.27183,43.2996 7.85714,56.42857 3.6208,3.62076 16.51644,19.91216 24.28572,12.14286 9.50104,-9.5011 -11.90259,-19.51946 -15,-25.71429 -3.3554,-6.71078 6.77559,-17.12262 9.28571,-22.14286 2.43002,-4.86004 0.30551,-23.87694 2.14286,-25.71428 16.21368,-16.21369 25.62855,-4.28572 47.85714,-4.28572 1.595,0 56.56511,5.85083 47.85714,-2.85714 -9.03721,-9.03721 -35.8912,-1.72564 -50,-6.42857 -18.949,-6.31634 -34.74815,-17.14286 -53.57143,-17.14286 z"
           id="path4168"
           inkscape:connector-curvature="0" />
      </g>
    </g>
    <g
       id="g4236"
       transform="translate(-70,0)">
      <path
         sodipodi:nodetypes="csscsssssc"
         inkscape:connector-curvature="0"
         id="path4017"
         d="m 971.29115,720.37777 c 3.66176,1.02555 3.70885,3.50896 3.70885,1.98441 0,-0.27764 34.1934,26.42857 33.5714,26.42857 -5.7944,0 -33.65664,-12.76543 -34.99997,-13.57143 -8.21835,22.78372 2.44783,43.16212 14.28571,55 7.92008,7.92008 -3.49833,41.50167 -6.42857,38.57143 -0.57684,-0.57684 -0.55092,-42.30622 -5,-37.85714 -2.02692,2.02692 -1.43939,51.40693 -7.85714,38.57143 -5.24541,-10.49082 6.07366,-27.1384 0.71428,-37.85715 -7.34979,-14.69958 -31.17936,-91.18103 2.00544,-71.27012 z"
         style="fill:#a5d699;fill-opacity:1;stroke:none" />
      <path
         inkscape:connector-curvature="0"
         id="path4019"
         d="m 1007.7006,748.81134 c -5.3484,-2.27583 -34.5977,-16.18086 -34.5977,-19.44544 0,-2.35852 0.64028,4.74464 0.25254,7.07107"
         style="fill:#7ab76b;fill-opacity:1;stroke:none" />
      <path
         inkscape:connector-curvature="0"
         id="path4021"
         d="m 962.4963,749.06388 c 0.47845,3.12871 3.56212,46.94551 10.6066,39.90102 3.76128,-3.76127 -3.61921,-18.93887 -5.05076,-23.23351 -1.6068,-4.82041 -0.31376,-12.30551 -1.51523,-15.9099"
         style="fill:url(#linearGradient4250);fill-opacity:1;stroke:none" />
      <path
         inkscape:connector-curvature="0"
         id="path4212"
         d="m 968.92857,728.07647 c -13.14317,-8.25395 13.00041,-4.89306 4.64286,-0.71429 -1.85237,0.92618 -1.89662,1.17199 -4.64286,0.71429 z"
         style="fill:#4c4c4c;fill-opacity:1;stroke:none" />
    </g>
    <path
       style="fill:#3d3d3d;stroke:none;stroke-width:1px;stroke-linecap:butt;stroke-linejoin:miter;stroke-opacity:1;fill-opacity:1"
       d="m 462.85714,317.14286 c 0.92884,-6.41964 2.85714,-10.94205 2.85714,-17.14286 0,-12.90957 2.94522,-37.05478 17.14286,-22.85714 2.90872,2.90872 -7.82996,100.85022 -20,40 z"
       id="path6515"
       inkscape:connector-curvature="0"
       transform="translate(0,452.36218)" />
    <g
       id="g4242"
       transform="translate(-630,0)">
      <path
         transform="translate(0,452.36218)"
         id="path4204"
         d="m 1063.0625,264.6875 c -17.6254,-0.54542 0.032,61.72111 5.1563,77.09375 1.5649,4.69483 -0.169,10.44923 1.0624,15.375 1.2328,4.93074 -4.9688,19.10932 0.375,21.78125 6.8169,3.40843 0.771,-43.53639 7.8438,-40 9.7226,4.86129 -2.2399,28.82272 4.6562,35.71875 6.6976,6.69768 5.1288,-33.2739 0.6876,-42.15625 -2.1535,-4.30713 -6.0484,-7.15908 -8.1876,-11.4375 -3.0554,-6.11098 -5.8901,-29.2823 -2.5,-36.0625 0.1417,-0.28323 0.3355,-0.72467 0.5,-1.0625 6.0965,2.4287 17.3889,3.70253 19.125,4.28125 4.8774,1.62577 11.0635,2.501 15,6.4375 0.1178,0.11773 2.1563,1.91973 2.1563,1.78125 0,-7.11985 -24.9549,-16.53196 -32.1875,-23.84375 0.012,-0.1514 0.031,-0.29873 0.031,-0.4375 -5.9873,-5.10681 -10.4547,-7.36775 -13.7187,-7.46875 z"
         style="fill:#a5d699;fill-opacity:1;stroke:none"
         inkscape:connector-curvature="0" />
      <path
         transform="translate(0,452.36218)"
         inkscape:connector-curvature="0"
         id="path4202"
         d="m 1067.5,295.35714 c -3.0148,8.49165 8.6674,41.20201 6.0714,42.5 -5.3096,2.65484 -21.5366,-51.77915 -6.0714,-42.5 z"
         style="fill:url(#linearGradient4248);fill-opacity:1;stroke:none" />
      <path
         transform="translate(0,452.36218)"
         inkscape:connector-curvature="0"
         id="path4214"
         d="m 1068.9286,275.35714 c -1.7339,0.31585 -3.1,0.22865 -3.9286,-1.42857 -0.2285,-0.45696 -0.1041,-2.26939 0.3571,-2.5 7.8198,-3.90988 11.9667,7.28667 3.5715,3.92857 z"
         style="fill:#4c4c4c;fill-opacity:1;stroke:none" />
      <path
         sodipodi:nodetypes="cssscc"
         transform="translate(0,452.36218)"
         inkscape:connector-curvature="0"
         id="path4225"
         d="m 1108.3929,296.25 c -3.3419,-2.61378 -7.3361,-2.32874 -10.8929,-4.10714 -2.7978,-1.3989 -7.2097,-2.5 -10.7143,-2.5 -3.6521,0 -11.6355,-1.84455 -14.3351,-4.59431 -1.3515,-1.37656 0.4507,-2.35475 1.1208,-4.69141 0.3512,-0.35119 33.637,10.43158 34.8215,15.89286 z"
         style="fill:#7ab86a;fill-opacity:1;stroke:none" />
    </g>
    <path
       style="fill:#e09307;fill-opacity:1;stroke:none"
       d="m 1054.2857,433.79075 c 1.3263,44.04253 10,91.21617 10,134.28572 0,68.40885 -7.1428,135.91078 -7.1428,205.71428 0,23.33333 0,46.66667 0,70 0,5.2381 5.238,15.71429 0,15.71429 -3.0117,0 0.7275,-10.70102 2.8571,-8.57143 3.5794,3.57935 11.4286,15.06197 11.4286,10 0,-113.90131 -1.4286,-236.93589 -1.4286,-354.28572 0,-18.84483 6.3323,-81.67577 -15.7143,-72.85714 z"
       id="path4252"
       inkscape:connector-curvature="0" />
    <rect
       style="fill:#ddd5ca;fill-opacity:1;stroke:none"
       id="rect6003"
       width="800"
       height="600"
       x="1600"
       y="0"
       transform="translate(0,452.36218)"
       inkscape:export-filename="C:\Users\matthew\Projects\disconnected_worlds\assets\bg_4_1.png"
       inkscape:export-xdpi="90"
       inkscape:export-ydpi="90" />
    <path
       style="fill:#ccc1b6;stroke:none;stroke-width:1px;stroke-linecap:butt;stroke-linejoin:miter;stroke-opacity:1;fill-opacity:1"
       d="m 1591.4286,140 c 2.3755,11.38838 18.8514,118.2914 34.2857,102.85715 13.1328,-13.13284 3.1595,-46.01667 17.1428,-60 1.9498,-1.94978 2.6854,24.37158 11.4286,20 10.5146,-5.25729 14.4979,-20.10607 25.7143,-25.71429 8.3947,-4.19737 22.0467,13.26236 31.4286,8.57143 29.0269,-14.51346 46.543,-38.98578 77.1428,-54.28572 11.0445,-5.52225 19.1956,11.16043 28.5714,14.28572 15.636,5.21198 35.9776,-2.2932 51.4286,2.85714 24.9189,8.30631 42.8387,14.2765 65.7143,25.71429 4.1019,2.05096 130.9467,6.90192 134.2857,8.57143 11.1503,5.57513 37.103,30.01991 51.4286,22.85714 10.8532,-5.42662 17.5116,-20.18436 28.5714,-25.71429 10.7398,-5.36989 23.0542,8.47293 34.2857,2.85715 19.0483,-9.52414 37.0734,-21.39381 57.1429,-31.42858 24.1424,-12.0712 56.5663,16.85461 74.2857,25.71429 4.6017,2.30084 43.9697,2.30084 48.5714,0 7.6143,-3.80714 3.8296,-23.7995 17.1429,-17.14286 4.5198,2.25993 32.4686,16.10277 37.1428,11.42857 19.2033,-19.20321 5.7143,-84.21824 5.7143,-114.285709 0,-42.723895 20.1607,-108.249988 0,-148.571428 -10.9322,-21.864413 -30.4861,-9.657033 -54.2857,-2.857143 -109.9671,31.419179 -235.0868,31.893959 -348.5714,40 -78.843,5.63164 -158.0637,12.304215 -237.1429,5.714286 -27.0379,-2.253159 -182.0647,-26.50673 -200,-8.571429 -3.7166,3.716585 2.8572,14.217824 2.8572,17.142857 0,24.746404 -16.9404,103.262082 -8.5715,119.999999 8.8085,17.616837 18.4321,39.268217 14.2858,59.999997 z"
       id="path6005"
       inkscape:connector-curvature="0"
       transform="translate(0,452.36218)" />
    <path
       style="fill:#ac9f91;stroke:none;stroke-width:1px;stroke-linecap:butt;stroke-linejoin:miter;stroke-opacity:1;fill-opacity:1"
       d="m 1585.7143,528.57143 c 49.1271,26.92811 120.6134,-18.26471 168.5714,5.71428 17.7315,8.86577 60.3203,14.28572 80,14.28572 40.9011,0 87.1111,5.71428 122.8571,5.71428 2.2372,0 12.8601,1.42565 14.2858,0 6.3216,-6.32164 33.5104,-8.57142 45.7142,-8.57142 56.653,0 110.8891,-11.42858 171.4286,-11.42858 27.3822,0 238.0303,36.25548 254.2857,20 11.0836,-11.0836 -14.9421,-75.59856 -20,-85.71428 -3.1976,-6.39524 -6.7131,-74.28571 -11.4285,-74.28571 -33.5055,0 -105.8196,18.06015 -134.2858,8.57142 C 2222.72,384.71619 1939.6721,385.08198 1880,400 c -45.5528,11.3882 -99.3861,-5.91894 -142.8572,8.57143 -28.2673,9.42245 -141.9449,-9.48365 -160,8.57143 -12.6326,12.6326 1.2704,93.17583 8.5715,111.42857 z"
       id="path6517"
       inkscape:connector-curvature="0"
       transform="translate(0,452.36218)" />
    <path
       style="fill:#8f7c66;stroke:none;stroke-width:1px;stroke-linecap:butt;stroke-linejoin:miter;stroke-opacity:1;fill-opacity:1"
       d="m 1571.4286,545.71429 c 71.4703,12.99768 152.7316,17.14285 225.7142,17.14285 16.608,0 273.9206,-2.97885 274.2858,-2.85714 18.3089,6.103 75.2647,12.05461 94.2857,5.71429 15.214,-5.07136 36.2611,-8.57143 51.4285,-8.57143 45.0614,0 90.2049,2.85714 134.2858,2.85714 5.354,0 65.7142,7.77811 65.7142,5.71429 0,-5.76452 -5.8148,-45.81487 -8.5714,-48.57143 -2.6818,-2.68179 -7.1746,2.15873 -8.5714,2.85714 -15.8008,7.90037 -64.5131,1.0146 -80,-2.85714 -47.6323,-11.90807 -96.6139,4.1572 -145.7143,-2.85715 -67.5384,-9.64833 -227.5173,-21.92511 -294.2857,-8.57142 -24.7356,4.94711 -51.5817,8.57142 -77.1429,8.57142 -39.8762,0 -168.3505,21.97839 -200,11.42858 -5.8583,-1.95279 -33.8567,-14.71473 -40,-8.57143 -3.863,3.86307 2.715,14.00138 2.8572,14.28571"
       id="path6519"
       inkscape:connector-curvature="0"
       transform="translate(0,452.36218)" />
    <path
       style="fill:none;stroke:none;stroke-width:1px;stroke-linecap:butt;stroke-linejoin:miter;stroke-opacity:1"
       d="m 1677.1428,431.42857 c -9.9899,12.63311 -23.5617,37.49517 -34.2857,42.85715"
       id="path6521"
       inkscape:connector-curvature="0"
       transform="translate(0,452.36218)" />
    <path
       style="fill:none;stroke:none;stroke-width:7;stroke-linecap:butt;stroke-linejoin:miter;stroke-opacity:1;stroke-miterlimit:4;stroke-dasharray:none"
       d="M 1831.4286,425.71429 C 1831.1504,447.22298 1820,466.23107 1820,488.57143"
       id="path6523"
       inkscape:connector-curvature="0"
       transform="translate(0,452.36218)" />
    <path
       style="fill:#8f7e94;stroke:none;stroke-width:1px;stroke-linecap:butt;stroke-linejoin:miter;stroke-opacity:1;fill-opacity:1"
       d="m 2205.7143,385.71429 c 9.2565,35.32054 61.0416,119.22602 88.5714,174.28571 8.2009,16.40186 15.9517,44.52309 22.8571,51.42857 2.6277,2.62768 117.8242,31.08793 122.8572,28.57143 4.4114,-2.20572 -3.1107,-52.18905 -5.7143,-60 -8.7942,-26.38247 5.4817,-61.16286 0,-88.57143 -6.8763,-34.38127 6.684,-69.43713 0,-102.85714 -11.0439,-55.21947 -2.8571,-118.41593 -2.8571,-174.28571 0,-51.12657 -5.7143,-103.39063 -5.7143,-154.285716 0,-21.153134 9.7809,-131.866714 2.8571,-145.714285 -8.0059,-16.011819 -15.3174,-16.230159 -28.5714,-22.857139 -9.324,-4.662 -194.256,22.827438 -194.2857,22.857139 -7.398,7.397939 -17.1429,7.036399 -17.1429,20"
       id="path6531"
       inkscape:connector-curvature="0"
       transform="translate(0,452.36218)" />
    <path
       style="fill:#3d3d3d;fill-opacity:1;stroke:none"
       d="m 2217.1428,869.505 c 2.181,-5.3204 2.8572,-21.9318 2.8572,-51.4285 0,-20.3178 13.8827,-131.8316 51.4286,-94.2857 6.2943,6.2943 3.4833,17.769 8.5714,22.8571 7.3857,7.3858 1.1888,71.9081 -2.8572,80 -3.1583,6.3166 -6.0497,136.8074 -25.7142,117.1428 -5.8008,-5.8007 -4.5632,-18.8488 -11.4286,-25.7142 -9.4581,-9.4581 -19.8723,-33.647 -22.8572,-48.5715 z"
       id="path6533"
       inkscape:connector-curvature="0"
       inkscape:export-filename="C:\Users\matthew\Projects\disconnected_worlds\src\working\rdoor2.png"
       inkscape:export-xdpi="90"
       inkscape:export-ydpi="90" />
    <path
       style="fill:#a691ac;stroke:none;stroke-width:1px;stroke-linecap:butt;stroke-linejoin:miter;stroke-opacity:1;fill-opacity:1"
       d="m 2317.1428,622.85714 c 9.0179,-97.632 2.8572,-194.68669 2.8572,-291.42857 0,-56.28862 -5.7143,-112.9201 -5.7143,-168.57142 0,-40.16206 -8.1263,-127.236135 -20,-162.8571459997961 C 2288.8273,-16.375169 2286.9551,-100.62043 2302.8571,-108.57142 c 22.9826,-11.49127 109.1519,14.866112 122.8572,28.571425 13.0658,13.065847 13.9975,72.5564102 17.1428,91.42857 26.0539,156.323215 20,317.130985 20,477.142855 0,23.32817 1.7396,143.97467 -8.5714,154.28571 -18.121,18.12099 -99.6476,3.03337 -117.1429,-5.71428"
       id="path6535"
       inkscape:connector-curvature="0"
       transform="translate(0,452.36218)" />
    <path
       style="fill:#8f7e94;stroke:none;stroke-width:1px;stroke-linecap:butt;stroke-linejoin:miter;stroke-opacity:1;fill-opacity:1"
       d="m 1638.4674,620.20305 c 23.1108,-43.15758 73.7644,-78.8383 92.9341,-117.17769 2.2022,-4.40443 0.5582,-14.7004 4.0406,-18.18275 16.3576,-16.35763 36.5823,-63.06311 46.467,-82.83251 12.6131,-25.22623 -1.5443,-108.26072 -6.0609,-135.36044 -9.887,-59.32184 -1.5585,-122.02596 -10.1016,-181.827454 -3.1666,-22.166436 -8.425,-189.070456 -18.1827,-193.949286 -12.5539,-6.27695 -32.8805,-4.17951 -48.4873,-8.08122 -14.5674,-3.64183 -27.9654,-14.14214 -42.4264,-14.14214 -8.2083,0 -2.0203,33.59729 -2.0203,42.426409 0,61.824304 10.1015,127.508317 10.1015,189.908681 0,46.01406 2.8705,96.76442 -6.0609,141.42135 -7.5483,37.74118 2.2961,79.15706 -4.0406,117.1777 -10.8868,65.32043 1.9536,133.60696 -14.1422,197.98989 -5.6175,22.47028 2.4864,40.09628 -2.0203,62.62946 z"
       id="path6553"
       inkscape:connector-curvature="0"
       transform="translate(0,452.36218)" />
    <path
       style="fill:#a691ac;stroke:none;stroke-width:1px;stroke-linecap:butt;stroke-linejoin:miter;stroke-opacity:1;fill-opacity:1"
       d="m 1559.6755,622.22336 c 26.2372,-6.7996 61.9051,12.84619 80.8122,-6.06092 29.1005,-29.1005 42.2049,-202.50045 48.4873,-246.47722 4.5789,-32.05177 -6.629,-64.71341 -2.0203,-96.97464 10.3828,-72.6796 40.6357,-359.384712 -6.0609,-406.08132 -7.5034,-7.50341 -79.897,4.77735 -90.9137,12.12183 -60.1767,40.117815 -24.2437,230.5654 -24.2437,296.98484 0,60.40389 -4.0406,121.0307 -4.0406,181.82746 0,81.6934 -17.379,187.86615 -2.0203,264.65997 z"
       id="path6555"
       inkscape:connector-curvature="0"
       transform="translate(0,452.36218)" />
    <path
       style="fill:#3d3d3d;fill-opacity:1;stroke:none"
       d="m 1727.3608,963.4688 c -4.6605,-31.4202 -6.0609,-64.9849 -6.0609,-96.9747 0,-15.489 0,-30.978 0,-46.467 0,-10.9362 0.6847,-20.2369 4.0406,-30.3046 35.286,-105.858 34.9401,75.3462 36.3655,76.7716 16.4248,16.4248 -34.3452,97.5802 -34.3452,107.0762"
       id="path6557"
       inkscape:connector-curvature="0"
       inkscape:export-filename="C:\Users\matthew\Projects\disconnected_worlds\src\working\ldoor32.png"
       inkscape:export-xdpi="90"
       inkscape:export-ydpi="90" />
    <path
       style="fill:none;stroke:none"
       d="m 1979.9999,1175.2193 c 11.7742,21.7374 -6.6134,52.4875 2.8572,71.4286"
       id="path6525"
       inkscape:connector-curvature="0" />
    <g
       id="g5466"
       style="stroke:none"
       inkscape:export-filename="C:\Users\matthew\Projects\disconnected_worlds\src\working\green2.png"
       inkscape:export-xdpi="90"
       inkscape:export-ydpi="90">
      <path
         inkscape:connector-curvature="0"
         id="path6537"
         d="m 2045.7142,1169.505 c -0.3161,-151.8948 71.7776,-73.9367 122.8572,-22.8571 1.8013,1.8013 39.354,45.7143 28.5714,45.7143 -9.401,0 -94.5782,-48.279 -100,-42.8572 -5.1244,5.1244 -1.2649,53.0209 2.8571,57.1429 14.5909,14.5909 -3.3156,56.6843 5.7143,65.7143 28.5357,28.5356 35.0164,93.5551 5.7143,122.8571 -25.7514,25.7515 8.5747,-79.9983 -8.5714,-88.5714 -1.9101,-0.955 -21.5501,-1.307 -22.8572,0 -5.2137,5.2137 2.8572,32.5716 2.8572,40 0,11.1877 -13.8178,33.8178 -22.8572,42.8571 -1.8273,1.8274 -6.5724,10.5705 -11.4285,5.7143 -8.6769,-8.6769 24.0358,-90.2498 14.2857,-100 -19.1758,-19.1757 -36.2497,-93.8695 -17.1429,-125.7143 z"
         style="fill:#a5d699;fill-opacity:1;stroke:none" />
      <path
         inkscape:connector-curvature="0"
         id="path6545"
         d="m 2057.3043,1164.1272 c -0.1129,11.9321 -6.4224,105.2366 14.1421,94.9543 13.9192,-6.9596 -2.9812,-74.8496 4.0407,-88.8934"
         style="fill:url(#linearGradient5472);fill-opacity:1;stroke:none" />
      <path
         inkscape:connector-curvature="0"
         id="path6547"
         d="m 2198.7257,1190.3912 c -6.1166,-4.628 -4.6014,-2.5811 -16.1625,-14.1422 -14.8244,-14.8244 -39.2282,-19.0252 -50.5076,-30.3046 -2.457,-2.4569 -24.7586,-17.6677 -26.264,-16.1624 -1.6951,1.6951 -4.9983,12.017 -6.0609,14.1421 -5.2527,10.5054 -6.9772,6.2487 -4.0406,12.1219"
         style="fill:#7eba70;fill-opacity:1;stroke:none" />
      <path
         inkscape:connector-curvature="0"
         id="path6559"
         d="m 2091.4285,1106.6479 c -2.4833,-0.3637 -12.7377,0.2389 -14.2857,-2.8571 -1.5032,-3.0065 2.4561,-4.7995 4.2857,-5.7143 21.712,-10.856 48.0615,23.796 10,8.5714 z"
         style="fill:#687764;fill-opacity:1;stroke:none" />
    </g>
    <path
       style="fill:#3d3d3d;fill-opacity:1;stroke:none"
       d="m 2320.3153,1300.6363 c 2.2221,-23.8896 3.1134,-47.9748 7.071,-71.7209 4.2566,-25.5394 9.3901,-49.3833 17.1726,-72.731 1.3659,-4.0975 5.522,-6.5321 8.0813,-9.0913 15.0322,-15.0323 28.4553,4.7249 32.3248,20.203 8.093,32.372 -8.3449,138.1718 -19.1929,170.7158 -2.2619,6.7859 2.6908,29.6341 -2.0203,34.3452 -1.6942,1.6942 -9.6618,-8.937 -11.1116,-11.1117 -12.4088,-18.6132 -28.0014,-38.9915 -32.3249,-60.6091 z"
       id="path6585"
       inkscape:connector-curvature="0"
       inkscape:export-filename="C:\Users\matthew\Projects\disconnected_worlds\src\working\rdoor22.png"
       inkscape:export-xdpi="90"
       inkscape:export-ydpi="90" />
    <path
       style="fill:#3d3d3d;fill-opacity:1;stroke:none"
       d="m 1647.3608,1327.5094 c -2.6803,-18.9294 -4.9316,-37.671 -8.0812,-56.5686 -3.0578,-18.3471 -3.0304,-36.6574 -3.0304,-55.5584 0,-11.3877 -0.7207,-25.4017 2.0203,-36.3655 2.7214,-10.8857 3.6336,-22.0126 7.071,-32.3248 2.0578,-6.1732 7.3788,-10.7169 10.1016,-16.1625 5.39,-10.7801 13.0466,1.7643 15.1522,8.0812 3.4335,10.3005 18.8112,109.8599 16.1625,115.1574 -5.8435,11.6869 -19.769,29.0023 -24.2437,42.4264 -3.0272,9.0818 -6.6737,29.1951 -15.1523,31.3148 z"
       id="path6587"
       inkscape:connector-curvature="0"
       inkscape:export-filename="C:\Users\matthew\Projects\disconnected_worlds\src\working\ldoor3.png"
       inkscape:export-xdpi="90"
       inkscape:export-ydpi="90" />
    <path
       style="fill:none;stroke:#8f7c66;stroke-width:7;stroke-linecap:butt;stroke-linejoin:miter;stroke-opacity:1;stroke-miterlimit:4;stroke-dasharray:none"
       d="m 1853.6299,425.24361 c -6.7022,-3.75005 -34.18,58.25845 -33.335,56.56854"
       id="path6589"
       inkscape:connector-curvature="0"
       transform="translate(0,452.36218)" />
    <path
       style="fill:none;stroke:#8f7c66;stroke-width:7;stroke-linecap:butt;stroke-linejoin:miter;stroke-opacity:1;stroke-miterlimit:4;stroke-dasharray:none"
       d="m 1953.635,416.15224 c 4.3017,20.49188 -5.0508,42.92338 -5.0508,62.62946"
       id="path6591"
       inkscape:connector-curvature="0"
       transform="translate(0,452.36218)" />
    <path
       style="fill:none;stroke:#8f7c66;stroke-width:7;stroke-linecap:butt;stroke-linejoin:miter;stroke-opacity:1;stroke-miterlimit:4;stroke-dasharray:none"
       d="m 2134.4523,425.24361 c 9.6176,21.18836 12.8585,47.94026 23.2335,68.69037"
       id="path6593"
       inkscape:connector-curvature="0"
       transform="translate(0,452.36218)" />
    <g
       id="g6615"
       transform="translate(-200,325.71429)"
       inkscape:export-filename="C:\Users\matthew\Projects\disconnected_worlds\src\working\green.png"
       inkscape:export-xdpi="90"
       inkscape:export-ydpi="90">
      <path
         transform="translate(0,452.36218)"
         inkscape:connector-curvature="0"
         id="path6595"
         d="m 2153.6452,424.23346 c 4.1147,-0.17838 21.4201,8.8845 23.2335,7.07107 0.051,-0.0508 -14.07,-18.03859 -15.1523,-20.20305 -7.1536,-14.30729 -26.8899,-23.85947 -38.3858,-35.35534 -14.2437,-14.24377 -29.9836,-29.98366 -43.4365,-43.43656 -2.8383,-2.83831 -24.5336,-13.85223 -29.2944,-9.09138 -6.2218,6.22178 -14.3746,10.56628 -19.1929,20.20306 -2.4246,4.84904 -1.3134,12.02132 -3.0305,17.17259 -13.2764,39.82908 -12.9005,119.89231 0,158.59395 6.7686,20.30579 7.3667,10.39717 18.1827,21.2132 5.3629,5.3629 1.0102,31.44919 1.0102,38.3858 0,12.89473 -25.4392,55.37298 -24.2437,56.56854 5.5951,5.59507 17.3837,-3.24151 21.2132,-7.07107 20.3465,-20.34642 -1.5645,-69.42335 23.2335,-81.82235 29.8994,-14.94967 30.4018,59.50185 11.1117,78.79189 -5.0868,5.08687 4.6743,12.81518 10.1015,10.10153 9.2395,-4.61971 11.044,-14.9492 14.1422,-24.24366 23.8201,-71.46037 -25.2538,-81.95791 -25.2538,-139.40105 0,-8.09025 -11.2445,-80.87858 1.0101,-74.75129 9.1404,4.5702 67.1032,28.80374 74.7513,27.27412 z"
         style="fill:#a5d699;fill-opacity:1;stroke:none" />
      <path
         transform="translate(0,452.36218)"
         inkscape:connector-curvature="0"
         id="path6597"
         d="m 2175.8686,430.29437 c -17.9152,-10.51239 -32.2841,-27.25372 -52.528,-37.37564 -7.4516,-3.7258 -16.9169,-4.41785 -24.2436,-8.08122 -1.8616,-0.9308 -6.9564,-0.89544 -8.0812,-2.02031 -0.6014,-0.60132 -4.8786,-5.22299 -6.061,-4.04061 -2.6726,2.67268 -5.2472,16.55549 -7.071,20.20305"
         style="fill:#7eba70;fill-opacity:1;stroke:none" />
      <path
         transform="translate(0,452.36218)"
         inkscape:connector-curvature="0"
         id="path6601"
         d="m 2067.7822,347.46187 c -5.8631,0.41399 -11.3327,-0.22106 -14.1421,-3.03046 -5.3328,-5.33283 21.7809,-8.52366 28.2843,-2.02031 17.2122,17.21222 -5.1154,11.82083 -14.1422,5.05077 z"
         style="fill:#687764;fill-opacity:1;stroke:none" />
      <path
         transform="translate(0,452.36218)"
         inkscape:connector-curvature="0"
         id="path6603"
         d="m 2035.4574,412.11163 c -0.293,6.88372 -0.7217,133.48485 17.1726,79.80205 7.1405,-23.19236 0,-53.8907 0,-77.78175"
         style="fill:url(#linearGradient6621);fill-opacity:1;stroke:none" />
    </g>
    <rect
       style="fill:#a691ac;fill-opacity:1;stroke:none"
       id="rect6623"
       width="800"
       height="600"
       x="0"
       y="-747.63782"
       inkscape:export-filename="C:\Users\matthew\Projects\disconnected_worlds\assets\bg_4_0.png"
       inkscape:export-xdpi="90"
       inkscape:export-ydpi="90" />
    <rect
       y="-747.63782"
       x="0"
       height="151.42857"
       width="800"
       id="rect6625"
       style="fill:#8f7e94;fill-opacity:1;stroke:none" />
    <path
       style="fill:#8f7e94;stroke:none;stroke-width:1px;stroke-linecap:butt;stroke-linejoin:miter;stroke-opacity:1;fill-opacity:1"
       d="M -22.223356,-735.42166 C 19.797218,-837.24632 91.695488,-929.53343 153.54319,-1022.305 c 10.70872,-16.0631 22.42203,-42.6251 32.32488,-52.5279 1.36129,-1.3613 10.67753,-11.5458 10.10152,-12.1218 -3.93041,-3.9305 -95.29407,-2.0203 -105.055862,-2.0203 -12.620975,0 -101.202048,-1.8336 -107.076169,4.0406 -9.621713,9.6217 5.970026,57.1138 4.040611,68.6903 -7.03064,42.18388 -21.284957,100.58477 -14.142136,143.4417 7.014653,42.08792 14.606453,95.11737 4.04061,137.38074 z"
       id="path6635"
       inkscape:connector-curvature="0"
       transform="translate(0,452.36218)" />
    <path
       style="fill:#8f7e94;stroke:none;stroke-width:1px;stroke-linecap:butt;stroke-linejoin:miter;stroke-opacity:1;fill-opacity:1"
       d="m 814.18295,-642.48762 c -39.18598,-84.72769 -65.05503,-190.44903 -125.25892,-270.72088 -21.59579,-28.79439 -47.10143,-68.57331 -58.58885,-103.0356 -8.79612,-26.3883 -14.35411,-56.9925 -26.26396,-80.8122 -0.84219,-1.6843 -4.41615,-7.7056 -4.04061,-8.0812 10.50128,-10.5013 69.72738,6.0609 82.83251,6.0609 18.06905,0 130.53022,7.2916 139.40105,16.1625 16.24246,16.2424 8.08122,123.67826 8.08122,147.48224"
       id="path6653"
       inkscape:connector-curvature="0"
       transform="translate(0,452.36218)" />
    <path
       style="fill:#3d3d3d;fill-opacity:1;stroke:none;stroke-width:1px;stroke-linecap:butt;stroke-linejoin:miter;stroke-opacity:1"
       d="m 882.86312,-470.94785 c 3.15646,-23.58038 12.12183,-47.03068 12.12183,-70.71068 0,-17.82749 31.54707,-95.34319 52.52793,-84.85279 9.56045,4.7802 10.439,18.5202 16.16244,24.2436 15.26548,15.2655 -20.20305,162.28539 -20.20305,189.90872 0,8.52845 -3.525,33.82958 -8.08122,38.3858 -1.22681,1.2268 -0.99032,18.18274 -2.02031,18.18274 -0.21868,0 0.2854,-7.51043 0,-8.08122 -2.79027,-5.58054 -6.06091,-17.63554 -6.06091,-24.24366 0,-14.91374 -32.64258,-75.75003 -44.44671,-82.83251 z"
       id="path6655"
       inkscape:connector-curvature="0"
       inkscape:export-filename="C:\Users\matthew\Projects\disconnected_worlds\src\working\bridgedoor.png"
       inkscape:export-xdpi="90"
       inkscape:export-ydpi="90" />
    <path
       style="fill:#3d3d3d;fill-opacity:1;stroke:none;stroke-width:1px;stroke-linecap:butt;stroke-linejoin:miter;stroke-opacity:1"
       d="m 684.8834,-460.84632 c 0.9504,-18.35684 6.0609,-36.43185 6.0609,-54.54824 0,-23.37016 20.7983,-120.92066 56.5686,-103.03556 3.7023,1.8512 10.0103,3.8582 12.1218,8.0812 15.2704,30.5407 -10.1015,149.11565 -10.1015,193.94931 0,4.36785 -2.2324,58.48279 -6.0609,56.56854 -28.6233,-14.31163 -38.1233,-75.43332 -58.5889,-101.01525 z"
       id="path6657"
       inkscape:connector-curvature="0"
       inkscape:export-filename="C:\Users\matthew\Projects\disconnected_worlds\src\working\bridgedoor2.png"
       inkscape:export-xdpi="90"
       inkscape:export-ydpi="90" />
    <g
       id="g4771"
       transform="translate(-1602.6549,95.663889)"
       style="stroke:none">
      <path
         inkscape:connector-curvature="0"
         id="path4623"
         d="m 1907.094,-195.31056 c 3.6005,11.30502 -8.4694,32.57665 0,41.48206 5.6055,5.89408 19.7724,0 27.6159,0 25.1394,0 170.1994,-2.66234 175.5577,-8.2964 6.7624,-7.11051 -2.1773,-60.36417 -5.9178,-64.29721 -0.2514,-0.26444 -9.4327,-2.07411 -17.753,-2.07411 -1.8705,0 -10.6441,-1.25253 -11.8353,0 -3.5239,3.70541 -87.4302,16.59283 -98.6279,16.59283 -37.9519,0 -40.8708,10.66903 -69.0396,16.59283 z"
         style="fill:#bfbfbf;fill-opacity:1;stroke:none" />
      <path
         sodipodi:nodetypes="cssssssc"
         transform="translate(0,452.36218)"
         inkscape:connector-curvature="0"
         id="path4619"
         d="m 1911.2086,-614.20336 c -0.5242,-15.40252 -12.3844,-50.24509 0,-62.62946 12,-12.00002 127.6196,-6.06091 155.5635,-6.06091 6.9339,0 34.5494,-5.65247 38.3858,2.0203 3.7587,7.51733 -4.0406,22.51925 -4.0406,30.30458 0,4.68163 0.8602,29.44437 -2.0203,32.32488 -10.3779,10.37788 -96.4073,6.06092 -117.1777,6.06092 -6.1638,0 -70.7107,1.7414 -70.7107,-2.02031"
         style="fill:#d3d3d3;fill-opacity:1;stroke:none" />
      <path
         transform="translate(0,452.36218)"
         inkscape:connector-curvature="0"
         id="path4621"
         d="m 1987.9802,-678.85312 c -1.504,8.51479 3.2127,27.09188 -2.0203,32.32488 -1.0628,1.06283 -22.2234,1.61189 -22.2234,2.0203 0,6.45398 16.0401,10.04031 20.2031,12.12184 3.8583,1.92916 15.1227,15.1819 16.1624,14.14213 9.0087,-9.00862 24.3921,-18.33119 32.3249,-26.26397 6.9241,-6.92411 -22.2233,3.68704 -22.2233,-10.10152 0,-5.18864 7.9947,-22.30988 4.0406,-26.26397 -0.5482,-0.54814 -19.9226,5.19099 -26.264,2.02031 z"
         style="fill:#a3cda0;fill-opacity:1;stroke:none" />
    </g>
    <g
       id="g6986"
       transform="translate(-560,0)"
       inkscape:export-filename="C:\Users\matthew\Projects\disconnected_worlds\src\working\record.png"
       inkscape:export-xdpi="90"
       inkscape:export-ydpi="90">
      <path
         transform="translate(0,452.36218)"
         inkscape:connector-curvature="0"
         id="path6823"
         d="m 177.78685,-874.82271 c -3.11043,25.89914 0.3449,58.93375 10.10152,68.69038 6.52882,6.52881 103.4898,-1.23727 117.1777,-8.08122 6.63474,-3.31738 3.25829,-18.63842 6.06091,-24.24366 6.3831,-12.7662 49.81729,-49.17766 30.30458,-68.69038 -4.96783,-4.96783 -41.11265,23.58679 -46.46702,26.26397 -19.58482,9.79241 -93.79331,1.38404 -117.17769,6.06091 z"
         style="fill:#9c89a3;fill-opacity:1;stroke:none" />
      <g
         id="g6752">
        <path
           style="fill:#b79564;fill-opacity:1;stroke:none"
           d="m 296.98485,-947.55369 c 12.00561,-8.32819 37.54828,-40.4061 44.44671,-40.4061 3.71154,0 0,32.30513 0,36.36549 0,10.03574 -2.02031,19.48875 -2.02031,30.30458 0,4.09634 4.91686,9.22527 2.02031,12.12183 -6.23804,6.23804 -12.31533,12.50883 -16.16244,20.20305 -2.24948,4.49896 -20.20305,24.79492 -20.20305,24.24366 0,-6.08872 -4.89168,-74.85864 -8.08122,-82.83251 z"
           id="path6639"
           inkscape:connector-curvature="0"
           transform="translate(0,452.36218)" />
        <path
           style="fill:#a78c68;fill-opacity:1;stroke:none"
           d="m 178.29193,-497.71689 c -0.36156,-7.7554 19.09316,-23.13378 34.34518,-38.3858 0.52537,-0.52537 128.85593,-6.94811 133.34014,2.02031 4.21098,8.42196 -22.11656,26.21056 -26.26397,28.28427 -7.4961,3.74805 -77.37875,35.75833 -92.93403,20.20305 -7.8217,-7.8217 -27.13304,-6.93 -34.34519,-14.14214 -3.3829,-3.3829 -12.7084,9.18898 -14.14213,2.02031 -0.67344,-3.36718 6.73435,-1.34687 0,0 z"
           id="path6641"
           inkscape:connector-curvature="0" />
        <path
           style="fill:#c2a478;fill-opacity:1;stroke:none"
           d="m 177.72839,-499.69143 c 1.41568,25.84432 -1.96185,49.46578 -1.96185,74.69874 0,6.22489 0,24.89958 0,18.67469 0,-4.17462 11.11412,2.99823 19.61847,0 17.3902,-6.13097 42.19698,-6.2249 58.85541,-6.2249 11.90649,0 45.44585,7.95785 54.93172,-2.07497 5.84153,-6.17834 -1.5494,-25.66586 -3.92369,-33.19944 -4.2491,-13.48229 3.04976,-40.34865 -5.88555,-49.79916 -5.04895,-5.34006 -112.01622,-4.10953 -121.63451,-2.07496 z"
           id="path6637"
           inkscape:connector-curvature="0" />
        <path
           style="fill:#747474;fill-opacity:1;stroke:none"
           d="m 242.43661,-965.73643 c -9.6431,-0.79923 -37.69225,1.38709 -42.42641,-8.08122 -12.16944,-24.33888 87.24774,-29.92995 105.05587,-12.12183 27.89444,27.89444 -47.48239,27.77658 -62.62946,20.20305 z"
           id="path6643"
           inkscape:connector-curvature="0"
           transform="translate(0,452.36218)" />
        <path
           style="fill:#4c4c4c;fill-opacity:1;stroke:none"
           d="m 323.24881,-977.85826 c -26.39657,8.99546 -3.30941,-27.91864 8.08122,-22.22334 4.47529,2.23762 3.5314,7.57198 6.06092,10.10151 5.13203,5.13203 -7.86674,8.35659 -14.14214,12.12183 z"
           id="path6645"
           inkscape:connector-curvature="0"
           transform="translate(0,452.36218)" />
        <path
           style="fill:#ababab;fill-opacity:1;stroke:none"
           d="m 325.26912,-996.04101 c -75.66866,18.34326 -82.28547,49.37128 0,0 z"
           id="path6649"
           inkscape:connector-curvature="0"
           transform="translate(0,452.36218)" />
        <path
           style="fill:#ce7075;fill-opacity:1;stroke:none"
           d="m 250.51783,-983.41411 c 2.02194,-1.50988 3.2427,-1.51522 5.55584,-1.51522 4.34882,0 16.26881,5.25011 8.5863,9.09137 -5.90391,2.95195 -25.01027,-3.2289 -14.14214,-7.57615 z"
           id="path6727"
           inkscape:connector-curvature="0"
           transform="translate(0,452.36218)" />
      </g>
    </g>
    <g
       id="g6975"
       transform="translate(-760,0)"
       inkscape:export-filename="C:\Users\matthew\Projects\disconnected_worlds\src\working\record2.png"
       inkscape:export-xdpi="90"
       inkscape:export-ydpi="90">
      <path
         inkscape:connector-curvature="0"
         id="path6973"
         d="m 162.85714,-423.3521 c 6.29203,13.17886 -11.09916,47.47227 -1.42857,57.14286 18.4573,18.4573 96.26054,21.15545 118.57143,10 0.38094,-0.19047 34.5415,-53.36872 37.14286,-58.57143 2.77839,-5.55678 15.65413,-24.34586 7.14285,-32.85714 -7.00544,-7.00545 -30.25553,12.27062 -37.14285,15.71428 -5.27637,2.63818 -14.37391,-1.87536 -20,0 -2.88443,0.96148 -14.15394,4.35161 -17.14286,2.85715 -9.66709,-4.83355 -77.85419,0.14108 -87.14286,5.71428 z"
         style="fill:#9c89a3;fill-opacity:1;stroke:none" />
      <g
         transform="translate(360,0)"
         id="g6743">
        <path
           style="fill:#a78c68;fill-opacity:1;stroke:none"
           d="m -199.68777,-499.23212 c 2.92126,-6.64471 22.70468,-33.33503 29.29442,-33.33503 5.8975,0 14.36626,-2.74057 21.71828,-1.51523 8.77267,1.46211 38.62798,3.28645 46.97209,0.50507 4.52446,-1.50815 34.26238,1.51523 41.41626,1.51523 3.29204,0 26.58957,-2.16643 23.73858,3.53554 -5.14121,10.28243 -16.43989,14.15874 -26.26396,20.70812 -18.7263,12.4842 -45.75381,15.80001 -69.19545,11.11168 -10.94039,-2.18808 -22.83671,2.70576 -33.84011,0.50508 -8.57922,-1.71585 -17.27318,-1.01016 -25.75889,-1.01016 -2.98416,0 -4.13986,-2.80857 -8.08122,-2.0203 z"
           id="path6729"
           inkscape:connector-curvature="0" />
        <path
           style="fill:#b79564;fill-opacity:1;stroke:none"
           d="m -36.54814,-530.04177 c 5.18412,17.0945 0,34.75016 0,52.02285 0,3.44227 1.07478,17.54842 0,19.69798 -2.53735,5.07471 -13.27205,15.70618 -17.67767,21.2132 -2.3588,2.94851 -16.0242,21.53486 -17.67767,20.70813 -0.9088,-0.4544 -1.86865,-23.63705 -2.52538,-26.26397 -1.37444,-5.49776 -4.99695,-58.13758 -1.51523,-61.6193 4.88428,-4.88428 14.1484,-9.19614 20.70813,-13.13199 6.7426,-4.04556 11.796,-9.87017 18.68782,-12.6269 z"
           id="path6731"
           inkscape:connector-curvature="0" />
        <path
           style="fill:#4c4c4c;fill-opacity:1;stroke:none"
           d="m -64.83241,-524.48593 c -9.59228,-9.97119 13.16027,-31.76319 18.68782,-20.70813 6.92979,13.85958 4.37841,12.45801 -7.07106,18.18275 -4.01987,2.00993 -6.7167,4.4854 -11.61676,2.52538 z"
           id="path6733"
           inkscape:connector-curvature="0" />
        <path
           style="fill:#747474;fill-opacity:1;stroke:none"
           d="m -72.91363,-532.56715 c -8.61439,-6.68151 -19.68742,-7.0658 -28.78935,-11.61676 -6.63318,-3.31659 -23.34478,-1.96467 -29.29442,1.01015 -3.34727,1.67364 -9.04956,-1.19244 -12.62691,0 -11.70925,3.90309 -41.62532,8.37723 -26.26396,23.73859 9.18527,9.18527 86.7438,15.78668 97.47972,5.05076 4.26342,-4.26342 2.77533,-12.71539 -0.50508,-18.18274 z"
           id="path6735"
           inkscape:connector-curvature="0" />
        <path
           style="fill:#929292;fill-opacity:1;stroke:none"
           d="m -59.27657,-541.65853 c -14.26162,2.54411 -37.27631,7.84664 -48.9924,15.65737 -1.80917,1.20611 -8.67326,4.9638 -5.55584,8.08122 1.76714,1.76713 9.63834,-4.05108 11.61676,-4.54569 6.09914,-1.52478 11.26889,-5.60824 17.17259,-7.57614 10.08278,-3.36093 17.91202,-5.33926 25.75889,-11.61676 z"
           id="path6737"
           inkscape:connector-curvature="0" />
        <path
           style="fill:#ce7075;fill-opacity:1;stroke:none"
           d="m -121.40095,-524.48593 c -1.97882,0.76219 -3.35819,0.56419 -5.05076,0 -10.47301,-3.49101 -4.93478,-10.45134 4.54568,-8.08122 4.4211,1.10527 16.10456,5.0797 8.08122,9.09137 -2.53595,1.26798 -7.92287,-1.01015 -10.10152,-1.01015"
           id="path6739"
           inkscape:connector-curvature="0" />
        <path
           style="fill:#c2a478;fill-opacity:1;stroke:none"
           d="m -198.67762,-500.24227 c -2.51121,25.04364 -2.0203,51.51373 -2.0203,77.27667 0,4.37765 -1.57678,13.35374 3.03045,15.65736 2.69921,1.3496 11.20751,-2.0203 14.64722,-2.0203 13.33108,0 38.47013,2.49727 50.50762,-1.51523 3.48724,-1.16241 8.03926,0.89437 11.61676,0 12.98773,-3.24694 35.17134,3.12245 45.45686,-2.02031 3.10792,-1.55396 4.54569,-5.09307 4.54569,-8.08122 0,-11.75321 1.1339,-32.45872 -2.52538,-43.43656 -2.18123,-6.54367 1.43162,-27.44133 -1.51523,-33.33503 -0.8192,-1.6384 -2.26636,-2.90095 -3.53554,-3.53554 -4.71956,-2.35978 -10.04095,5.33359 -15.65736,2.52539 -5.37455,-2.68728 -47.10124,-2.46081 -53.03301,0.50507 -2.53764,1.26882 -25.31581,-1.29369 -27.77919,-2.52538 -4.70215,-2.35107 -18.63482,0.50508 -23.73859,0.50508 z"
           id="path6741"
           inkscape:connector-curvature="0" />
      </g>
    </g>
    <rect
       y="-747.63782"
       x="1600"
       height="600"
       width="800"
       id="rect6761"
       style="fill:#a691ac;fill-opacity:1;stroke:none"
       inkscape:export-filename="C:\Users\matthew\Projects\disconnected_worlds\assets\bg_5_0.png"
       inkscape:export-xdpi="90"
       inkscape:export-ydpi="90" />
    <rect
       style="fill:#8f7e94;fill-opacity:1;stroke:none"
       id="rect6763"
       width="800"
       height="151.42857"
       x="1600"
       y="-747.63782"
       inkscape:export-filename="C:\Users\matthew\Projects\disconnected_worlds\assets\bg_5_0.png"
       inkscape:export-xdpi="90"
       inkscape:export-ydpi="90" />
    <path
       inkscape:connector-curvature="0"
       id="path6765"
       d="m 1577.7766,-283.05948 c 42.0206,-101.82466 113.9189,-194.11177 175.7666,-286.88334 10.7087,-16.0631 22.422,-42.6251 32.3249,-52.5279 1.3613,-1.3613 10.6775,-11.5458 10.1015,-12.1218 -3.9304,-3.9305 -95.2941,-2.0203 -105.0559,-2.0203 -12.6209,0 -101.202,-1.8336 -107.0761,4.0406 -9.6217,9.6217 5.97,57.1138 4.0406,68.6903 -7.0307,42.18388 -21.285,100.58477 -14.1422,143.4417 7.0147,42.08792 14.6065,95.11737 4.0406,137.38074 z"
       style="fill:#8f7e94;fill-opacity:1;stroke:none" />
    <path
       inkscape:connector-curvature="0"
       id="path6767"
       d="m 2414.1829,-190.12544 c -39.1859,-84.72769 -65.055,-190.44903 -125.2589,-270.72088 -21.5958,-28.79439 -47.1014,-68.57331 -58.5888,-103.0356 -8.7961,-26.3883 -14.3541,-56.9925 -26.264,-80.8122 -0.8422,-1.6843 -4.4161,-7.7056 -4.0406,-8.0812 10.5013,-10.5013 69.7274,6.0609 82.8325,6.0609 18.0691,0 130.5302,7.2916 139.4011,16.1625 16.2424,16.2424 8.0812,123.67826 8.0812,147.48224"
       style="fill:#8f7e94;fill-opacity:1;stroke:none" />
    <g
       id="g6869"
       transform="translate(320,0)"
       inkscape:export-filename="C:\Users\matthew\Projects\disconnected_worlds\src\working\balloon.png"
       inkscape:export-xdpi="90"
       inkscape:export-ydpi="90">
      <path
         transform="translate(0,452.36218)"
         inkscape:connector-curvature="0"
         id="path6861"
         d="m 2175.8686,-873.81255 c -16.9688,15.3715 21.1423,18.25363 27.2741,12.12183 0.8893,-0.88933 13.627,5.54577 14.1421,6.06091 4.051,4.05098 26.4764,-8.29364 28.2843,-10.10152 19.515,-19.51498 -17.9389,-11.86642 -26.264,-9.09138 -5.6697,1.8899 -12.211,-2.98585 -18.1827,0 -5.4164,2.7082 -15.8059,-2.76901 -25.2538,1.01016 z"
         style="fill:#9c89a3;fill-opacity:1;stroke:none" />
      <path
         transform="translate(0,452.36218)"
         inkscape:connector-curvature="0"
         id="path6813"
         d="m 2177.8889,-866.74149 c -2.6938,-1.34687 -9.4281,-1.34687 -8.0812,-4.04061 1.3468,-2.69374 9.428,6.73435 8.0812,4.04061 -1.4225,-2.84488 -12.1219,-10.75503 -12.1219,-14.14213 0,-4.09635 8.458,-0.18836 12.1219,-2.02031 1.2872,-0.64359 3.434,-8.68775 6.0609,-6.06091 0.6443,0.64436 16.7706,9.49336 20.203,6.06091 6.9357,-6.93569 22.6993,-29.8287 38.3858,-14.14213 12.484,12.48397 -3.5644,42.66449 -20.203,34.34518 -19.8654,-9.93267 -22.863,-8.35735 -44.4467,-4.04061 z"
         style="fill:#f195ab;fill-opacity:1;stroke:none" />
    </g>
    <g
       id="g6865"
       transform="translate(140,0)"
       inkscape:export-filename="C:\Users\matthew\Projects\disconnected_worlds\src\working\balloon2.png"
       inkscape:export-xdpi="90"
       inkscape:export-ydpi="90">
      <path
         inkscape:connector-curvature="0"
         id="path6863"
         d="m 2498.899,-424.48083 c -26.6324,20.2834 19.0154,12.53815 20.2031,13.13198 15.362,7.68102 28.1788,2.57809 39.3959,-3.03046 3.2878,-1.64388 5.3844,3.707 8.0812,1.01016 8.803,-8.80291 -11.755,-18.87123 -19.1929,-15.15229 -7.6182,3.80913 -18.0959,3.03046 -27.2741,3.03046 -7.1329,0 -14.2074,-0.39101 -21.2132,1.01015 z"
         style="fill:#9c89a3;fill-opacity:1;stroke:none" />
      <path
         inkscape:connector-curvature="0"
         id="path6815"
         d="m 2524.1528,-430.54175 c 17.3025,-25.66969 -18.1555,21.38264 8.0813,-10.10152 19.8114,-23.77369 45.6291,12.95972 38.3858,20.20305 -5.1014,5.10134 -82.8326,7.40604 -82.8326,-6.06092 0,-0.33882 11.2223,0.44979 12.1219,0 10.3633,-5.18167 -11.0673,-21.69606 24.2436,-4.04061 z"
         style="fill:#f195ab;fill-opacity:1;stroke:none" />
    </g>
    <path
       style="fill:#9c89a3;fill-opacity:1;stroke:none"
       d="m 1933.9694,-321.4058 c -12.8246,11.5886 -10.0404,32.33407 6.4905,32.33407 32.0843,0 32.5343,-34.25327 16.2263,-54.56374 -1.7866,-2.22511 6.6863,-5.81878 3.2453,-10.10439 -0.6069,-0.75584 -13.9968,-0.75584 -14.6037,0 -2.2158,2.75964 0.5932,15.42826 -1.6226,18.1879 -6.4693,8.05704 -3.5871,-4.99845 -9.7358,14.14616 z"
       id="path6829"
       inkscape:connector-curvature="0" />
    <path
       style="fill:#9c89a3;fill-opacity:1;stroke:none"
       d="m 1992.3841,-351.71899 c -19.737,29.94439 6.9274,80.29107 30.83,50.52199 9.6673,-12.04004 -19.5509,-58.65491 -22.7168,-60.62638 -2.6661,-1.66019 -16.7797,10.10439 -8.1132,10.10439 3.8245,0 5.4088,-13.47253 8.1132,-10.10439 2.7043,3.36813 -5.4088,6.73626 -8.1132,10.10439 z"
       id="path6831"
       inkscape:connector-curvature="0" />
    <path
       style="fill:#9c89a3;fill-opacity:1;stroke:none"
       d="m 2045.9309,-351.71899 c -3.4843,11.44202 -13.6319,32.73385 -8.1131,46.48023 13.5657,33.79037 54.8012,-10.56301 40.5657,-28.29231 -5.171,-6.44021 -7.5267,-19.47851 -12.981,-26.27144 -6.8314,-8.50808 -22.0831,-8.17893 -19.4716,8.08352 z"
       id="path6833"
       inkscape:connector-curvature="0" />
    <path
       style="fill:#9c89a3;fill-opacity:1;stroke:none"
       d="m 2130.3077,-349.69811 c -47.5106,39.11669 14.3378,89.24991 32.4527,66.68902 19.115,-23.80656 -1.9946,-46.94342 -12.9811,-60.62638 -2.449,-3.04997 -9.662,-4.22557 -8.1132,-8.08352 1.7489,-4.35632 7.0945,-14.14615 4.8679,-14.14615 -19.149,0 -36.7715,-9.42066 -16.2263,16.16703 z"
       id="path6835"
       inkscape:connector-curvature="0" />
    <path
       style="fill:#9c89a3;fill-opacity:1;stroke:none"
       d="m 2198.4582,-357.78162 c -30.6765,-13.70002 14.9663,-19.75715 21.0942,-12.12528 3.7686,4.69362 -6.8136,15.36235 -3.2453,24.25055 40.6556,101.26775 -74.2437,75.66965 -17.8489,-12.12527 z"
       id="path6837"
       inkscape:connector-curvature="0" />
    <path
       style="fill:#9c89a3;fill-opacity:1;stroke:none"
       d="m 2256.8729,-343.63547 c -6.3789,8.39724 -21.0254,56.62746 -8.1132,64.66813 7.4134,4.61641 28.0245,-3.11608 30.83,-10.10439 7.5455,-18.79466 -0.709,-43.32158 -8.1131,-52.54286 -0.8878,-1.10575 6.4458,-8.19475 4.8679,-12.12527 -0.3697,-0.92076 -50.3966,-9.15318 -19.4716,10.10439 z"
       id="path6839"
       inkscape:connector-curvature="0" />
    <path
       style="fill:none;stroke:#9c89a3;stroke-width:0.89631999px;stroke-linecap:butt;stroke-linejoin:miter;stroke-opacity:1"
       d="m 1951.8183,-337.57283 c -10.3042,-46.25146 -23.044,-56.7884 -51.9242,-74.77254"
       id="path6841"
       inkscape:connector-curvature="0" />
    <path
       style="fill:none;stroke:#9c89a3;stroke-width:0.89631999px;stroke-linecap:butt;stroke-linejoin:miter;stroke-opacity:1"
       d="m 2003.7425,-347.67723 c -6.8358,-32.28007 -57.1723,-70.73078 -102.2258,-70.73078"
       id="path6843"
       inkscape:connector-curvature="0" />
    <path
       style="fill:none;stroke:#9c89a3;stroke-width:0.89631999px;stroke-linecap:butt;stroke-linejoin:miter;stroke-opacity:1"
       d="m 2055.6667,-353.73986 c -38.109,-44.79071 -117.365,-54.56375 -159.0178,-54.56375"
       id="path6853"
       inkscape:connector-curvature="0" />
    <path
       style="fill:none;stroke:#9c89a3;stroke-width:0.89631999px;stroke-linecap:butt;stroke-linejoin:miter;stroke-opacity:1"
       d="m 2135.1756,-359.80251 c -43.7264,-26.03264 -176.9834,-76.7208 -222.3004,-48.5011"
       id="path6855"
       inkscape:connector-curvature="0" />
    <path
       style="fill:none;stroke:#9c89a3;stroke-width:0.89631999px;stroke-linecap:butt;stroke-linejoin:miter;stroke-opacity:1"
       d="m 2209.8166,-357.78162 c -28.6811,-19.88222 -61.1694,-24.60304 -92.49,-34.35496 -15.223,-4.73982 -29.9283,-14.44549 -43.811,-20.20879 -31.8658,-13.22892 -73.902,-4.04176 -107.0936,-4.04176 -20.1655,0 -41.6661,-5.60585 -60.0373,2.02088"
       id="path6857"
       inkscape:connector-curvature="0" />
    <path
       style="fill:none;stroke:#9c89a3;stroke-width:0.89631999px;stroke-linecap:butt;stroke-linejoin:miter;stroke-opacity:1"
       d="m 2260.1182,-341.61459 c -23.753,-13.09945 -42.7368,-41.7667 -69.7732,-48.5011 -47.0176,-11.71148 -97.2729,-0.38302 -144.4141,-12.12528 -47.6121,-11.85956 -97.0218,-20.2088 -146.0368,-20.2088"
       id="path6859"
       inkscape:connector-curvature="0" />
    <path
       style="fill:none;stroke:#000000;stroke-width:0.89631999px;stroke-linecap:butt;stroke-linejoin:miter;stroke-opacity:1"
       d="m 1932.3467,-511.36846 c 0.2778,36.60554 -21.4672,62.87956 -40.5657,74.77254"
       id="path6801"
       inkscape:connector-curvature="0" />
    <path
       style="fill:none;stroke:#000000;stroke-width:0.89631999px;stroke-linecap:butt;stroke-linejoin:miter;stroke-opacity:1"
       d="m 1977.7804,-525.51461 c -0.5366,27.55507 -59.3092,111.60181 -79.5089,99.02308"
       id="path6803"
       inkscape:connector-curvature="0" />
    <path
       style="fill:none;stroke:#000000;stroke-width:0.89631999px;stroke-linecap:butt;stroke-linejoin:miter;stroke-opacity:1"
       d="m 2045.9309,-525.51461 c -17.4391,28.26298 -38.4708,52.18988 -63.2826,70.73077 -10.5815,7.90712 -81.9038,39.93667 -87.6221,36.37583"
       id="path6805"
       inkscape:connector-curvature="0" />
    <path
       style="fill:none;stroke:#000000;stroke-width:0.89631999px;stroke-linecap:butt;stroke-linejoin:miter;stroke-opacity:1"
       d="m 2131.9304,-525.51461 c -20.8446,18.355 -41.8357,38.17702 -64.9053,52.54286 -18.2322,11.35349 -40.6773,13.3656 -60.0373,18.18791 -37.5016,9.34115 -84.0569,44.45934 -118.4521,44.45934"
       id="path6807"
       inkscape:connector-curvature="0" />
    <path
       style="fill:none;stroke:#000000;stroke-width:0.89631999px;stroke-linecap:butt;stroke-linejoin:miter;stroke-opacity:1"
       d="m 2183.8545,-523.49374 c -58.3865,61.4162 -140.0845,68.84399 -212.5646,86.89782 -22.8022,5.67973 -52.2781,-1.80046 -71.3958,10.10439"
       id="path6809"
       inkscape:connector-curvature="0" />
    <path
       style="fill:none;stroke:#000000;stroke-width:0.89631999px;stroke-linecap:butt;stroke-linejoin:miter;stroke-opacity:1"
       d="m 2248.7597,-515.41022 c -50.8236,56.35311 -123.1304,74.74304 -188.2251,84.87693 -33.8352,5.26745 -67.0573,19.30825 -100.6031,26.27144 -23.2908,4.83451 -54.1139,-12.12528 -73.0184,-12.12528"
       id="path6811"
       inkscape:connector-curvature="0" />
    <g
       id="g7014"
       transform="translate(-314.94414,-4.0406101)"
       inkscape:export-filename="C:\Users\matthew\Projects\disconnected_worlds\src\working\blue2.png"
       inkscape:export-xdpi="90"
       inkscape:export-ydpi="90">
      <path
         transform="translate(0,452.36218)"
         inkscape:connector-curvature="0"
         id="path6827"
         d="m 1830.3964,-856.63996 c -14.5593,11.07882 2.9784,26.36799 -4.0406,40.4061 -4.5186,9.0371 -12.9498,7.7169 -18.1828,18.18275 -5.4006,10.80138 2.1176,32.22761 -6.0609,40.4061 -17.1914,17.19147 -46.2879,109.45473 -80.8122,40.4061 -14.2261,-28.45222 43.6042,-75.59378 22.2234,-96.97464 -9.7653,-9.76526 -18.1828,-9.50064 -18.1828,-20.20305 0,-5.91938 -26.2639,-4.13861 -26.2639,-14.14214 0,-3.62644 29.0128,-2.0203 32.3249,-2.0203 25.6797,0 38.9906,-6.36334 58.5888,-16.16245 11.0243,-5.51217 28.3695,10.10153 40.4061,10.10153 z"
         style="fill:#9c89a3;fill-opacity:1;stroke:none" />
      <g
         id="g6817">
        <path
           style="fill:#a8b5eb;fill-opacity:1;stroke:none"
           d="m 1727.3608,-858.66026 c 8.7389,-1.66928 14.1422,-22.84163 14.1422,-50.50763 0,-20.2936 -12.1219,-45.76447 -12.1219,-64.64976 0,-24.77824 -16.2001,-67.66135 14.1422,-82.83255 2.4319,-1.2159 12.6897,-2.5882 14.1421,-4.0406 6.5259,-6.5258 22.6242,2.4211 28.2843,8.0812 43.8277,43.8278 19.3785,162.8202 28.2843,171.72598 3.8367,3.83676 19.4861,25.6774 16.1624,32.32488 -4.6203,9.24068 -30.3046,-13.13995 -30.3046,-10.10152 0,7.405 24.0906,30.45765 14.1422,40.4061 -9.8093,9.80929 -34.0567,-28.28427 -32.3249,-28.28427 3.9341,0 -22.2234,42.21981 -22.2234,30.30457 0,-6.63984 -2.3055,-13.57168 2.0203,-22.22335 1.4336,-2.86714 11.8964,-8.53217 10.1016,-12.12183 -2.4066,-4.81311 -23.9474,14.14213 -30.3046,14.14213 -4.7231,0 -28.7077,5.63754 -30.3046,4.04061 -3.9172,-3.91723 26.7599,-10.10152 18.1827,-10.10152 -6.3378,0 -40.728,-3.71864 -34.3451,-10.10153 7.7692,-7.76925 21.5414,2.02664 32.3248,-6.06091 z"
           id="path6777"
           inkscape:connector-curvature="0"
           transform="translate(0,452.36218)" />
        <path
           style="fill:#ffffff;fill-opacity:1;stroke:none"
           d="m 1765.7466,-955.63491 c -16.5757,-5.15767 -16.2809,-22.34187 -24.2436,-30.30457 -8.811,-8.81095 17.1451,-51.02642 42.4264,-38.38582 33.39,16.695 24.4405,94.26434 -18.1828,68.69039 z"
           id="path6779"
           inkscape:connector-curvature="0"
           transform="translate(0,452.36218)" />
        <path
           style="fill:#515151;fill-opacity:1;stroke:none"
           d="m 1771.8076,-977.85826 c -22.9915,-6.59416 16.7313,12.05913 -10.1016,-4.04061 -11.4846,-6.89076 8.7083,-35.73843 18.1828,-26.26393 11.0884,11.08842 21.5946,36.23971 -8.0812,30.30454 z"
           id="path6781"
           inkscape:connector-curvature="0"
           transform="translate(0,452.36218)" />
        <path
           style="fill:#f6f6f6;fill-opacity:1;stroke:none"
           d="m 1751.6045,-941.49277 c 14.0432,13.64186 29.6307,6.06091 46.467,6.06091 7.9705,0 7.3495,23.68689 4.0406,30.30458 -18.9923,37.98467 -66.1587,2.76225 -50.5076,-36.36549 z"
           id="path6785"
           inkscape:connector-curvature="0"
           transform="translate(0,452.36218)" />
      </g>
    </g>
    <g
       id="g5454"
       transform="translate(4.0406101,-4.0406101)"
       inkscape:export-filename="C:\Users\matthew\Projects\disconnected_worlds\src\working\light.png"
       inkscape:export-xdpi="90"
       inkscape:export-ydpi="90">
      <path
         style="fill:#f195ab;fill-opacity:1;stroke:none"
         d="m -598.57143,-50.49496 c -21.07641,23.83218 -10.63075,49.36925 5.71428,65.71429 4.33497,4.33496 16.4344,3.93148 22.85715,7.14285 6.92207,3.46104 22.8547,-8.57387 28.57142,-2.85714 4.43258,4.43258 -11.61093,15.53193 -8.57143,18.57143 0.54898,0.54898 9.71095,-1.99833 11.42858,-2.85714 1.80359,-0.9018 7.20001,1.37141 8.57142,0 13.76613,-13.76613 -5.11236,-10.60193 0,-15.71429 6.42075,-6.42074 16.4232,-4.99463 24.28572,-12.85714 7.02843,-7.02844 45.20713,-34.79287 28.57143,-51.42857 -7.66063,-7.66063 -114.70682,-19.15781 -121.42857,-5.71429 z"
         id="path6945"
         inkscape:connector-curvature="0" />
      <path
         inkscape:connector-curvature="0"
         id="path6875"
         d="m -547.14286,444.50504 c -7.88293,4.02656 -37.70494,-15.30441 -35.71428,-19.28572 2.26587,-4.53175 7.62285,-10.55809 12.14285,-13.57142 3.53994,-2.35996 29.29846,-8.20792 32.85714,-6.42858 2.8624,1.4312 7.80785,2.33376 11.42858,1.42858 4.99491,-1.24873 16.45601,-3.08609 21.42857,-1.42858 5.65074,1.88358 10.49619,3.97493 15.71428,5.71429 4.86777,1.62259 10.17928,13.92998 12.14286,17.85714 2.43853,4.87707 -9.9404,9.27082 -12.85714,10 -17.67965,4.41992 -42.71936,20.13778 -57.14286,5.71429 z"
         style="opacity:0.61946902;fill:#ffffff;fill-opacity:1;stroke:none" />
    </g>
    <g
       id="g5450"
       transform="translate(-734.28571,-8.571428)"
       inkscape:export-filename="C:\Users\matthew\Projects\disconnected_worlds\src\working\light2.png"
       inkscape:export-xdpi="90"
       inkscape:export-ydpi="90">
      <path
         style="fill:#f195ab;fill-opacity:1;stroke:none"
         d="M 382.85714,-59.06639 C 363.01094,-56.46832 330,-49.12289 330,-26.20924 c 0,31.16953 36.76338,47.14285 62.85714,47.14285 5.18973,0 -3.08799,12.6263 0,15.71429 3.591,3.591 22.67852,-4.28572 25.71428,-4.28572 5.48858,0 -8.38016,-13.0484 -7.14285,-14.28571 4.72071,-4.72071 12.35789,0.9985 17.14285,-8.57143 6.9023,-13.8046 26.44096,-13.60858 32.85715,-32.85714 14.66812,-44.00438 -47.44586,-48.16452 -78.57143,-35.71429 z"
         id="path6947"
         inkscape:connector-curvature="0"
         inkscape:export-filename="C:\Users\matthew\Projects\disconnected_worlds\assets\fullballoon_inv.png"
         inkscape:export-xdpi="90"
         inkscape:export-ydpi="90" />
      <path
         inkscape:connector-curvature="0"
         id="path6877"
         d="m 399.28571,446.6479 c -11.0895,2.2496 -30.96546,-4.7881 -36.42857,-15.7143 -1.26385,-2.5277 -1.79133,-5.3627 -3.57143,-7.1429 -7.51654,-7.5165 28.26502,-17.1428 31.42857,-17.1428 4.86951,0 10.03146,1.708 15,0.7143 15.10389,-3.0208 40.01547,-7.8262 48.57143,9.2857 1.52657,3.0531 5.35724,4.6432 6.42857,7.8571 6.03715,18.1115 -52.18255,37.5529 -61.42857,22.1429 z"
         style="opacity:0.43805309;fill:#ffffff;fill-opacity:1;stroke:none" />
    </g>
    <g
       id="g7007"
       transform="translate(-180,0)"
       inkscape:export-filename="C:\Users\matthew\Projects\disconnected_worlds\src\working\blue.png"
       inkscape:export-xdpi="90"
       inkscape:export-ydpi="90">
      <path
         inkscape:connector-curvature="0"
         id="path7005"
         d="m 1426.3507,-389.12549 c 9.1664,-2.28977 0.1801,8.26131 8.0812,16.16244 18.3694,18.36943 10.5812,45.02815 2.0203,70.71068 -2.6509,7.95263 -10.1015,17.4662 -10.1015,26.26396 0,8.64558 -0.2108,25.25382 9.0914,25.25382 12.2053,0 15.3198,9.00761 33.335,0 42.9907,-21.49538 28.4369,-80.96489 53.5381,-106.06602 2.5254,-2.52538 1.5152,-8.5863 4.0406,-11.11168 1.4915,-1.49155 -4.4396,-12.5208 -5.0508,-13.13198 -4.8345,-4.83451 14.4235,-8.81001 8.0812,-15.15229 -3.1053,-3.10535 -3.5305,-6.56097 -7.071,-10.10153 -7.7846,-7.78456 -31.2423,-13.49284 -44.4467,-9.09137 -20.7312,6.91039 -33.5196,19.06468 -51.5178,26.26397 z"
         style="fill:#9c89a3;fill-opacity:1;stroke:none" />
      <path
         inkscape:connector-curvature="0"
         id="path6997"
         d="m 1437.4624,-408.31839 c -5.7163,3.11426 -7.8633,3.03046 -13.132,3.03046 -2.336,0 -28.9611,1.34351 -21.2132,9.09137 2.0754,2.07541 26.2639,3.77781 26.2639,4.04061 0,2.19082 -17.253,2.86965 -15.1522,7.07107 1.1868,2.37366 12.0512,3.57081 15.1522,2.0203 8.7985,-4.39923 19.1598,-7.73344 29.2945,-11.11168 2.6074,-0.86912 16.1624,-6.11352 16.1624,-5.05076 0,4.82343 -15.4752,32.00198 -13.132,34.34519 4.0145,4.01449 19.9957,-29.08703 21.2132,-30.30458 1.9296,-1.9296 10.7056,19.49491 24.2437,26.26397 9.547,4.77352 2.7254,-19.09789 2.0203,-21.21321 -2.115,-6.345 -10.953,-11.27033 -10.1015,-12.12183 5.7473,-5.74729 24.0449,8.27999 30.3045,2.02031 0.6749,-0.67484 -10.4098,-23.85011 -12.1218,-27.27412 -8.6555,-17.31102 4.2027,-53.90012 -1.0101,-74.75129 -8.0225,-32.09002 -21.4326,-80.02144 -43.4366,-102.02544 -17.4142,-17.4142 -47.4772,7.035 -47.4772,28.2843 0,58.37924 23.2769,111.91026 12.1219,167.68533 z"
         style="fill:#a8b5eb;fill-opacity:1;stroke:none" />
      <path
         inkscape:connector-curvature="0"
         id="path6999"
         d="m 1449.5842,-487.11029 c -3.3766,14.29894 0.8355,28.52735 8.0812,39.39595 29.3536,44.03043 65.4606,-12.3212 44.4467,-33.33503 -2.7546,-2.75468 -42.7835,-0.21429 -52.5279,-6.06092 z"
         style="fill:#f6f6f6;fill-opacity:1;stroke:none" />
      <path
         inkscape:connector-curvature="0"
         id="path7001"
         d="m 1460.6959,-506.30319 c -51.05,-24.40697 8.6128,-103.99273 41.4162,-38.38579 2.5801,5.1602 7.1069,23.16194 4.0406,29.29442 -6.3509,12.70183 -40.4061,31.92328 -40.4061,10.10153"
         style="fill:#fcfcfe;fill-opacity:1;stroke:none" />
      <path
         inkscape:connector-curvature="0"
         id="path7003"
         d="m 1470.7974,-525.49609 c -8.6829,2.39591 -9.9799,-6.70628 -12.1218,-13.13198 -4.0466,-12.13965 20.1391,-19.32065 25.2538,-9.09135 5.481,10.96202 5.481,37.11376 -13.132,22.22333 z"
         style="fill:#515151;fill-opacity:1;stroke:none" />
    </g>
    <path
       style="fill:#3d3d3d;fill-opacity:1;stroke:none"
       d="m -14.28572,1358.0765 c -3.04929,-29.5331 2.85714,-60.0481 2.85714,-88.5715 0,-11.5242 15.89414,-118.7512 20,-122.8571 10.99705,-10.997 31.26101,-10.0838 45.71429,-2.8571 11.2127,5.6063 16.87089,-0.272 22.85714,5.7142 8.32384,8.3239 -1.78879,63.5776 -5.71428,71.4286 -30.5728,61.1456 21.79149,180.1452 -85.71429,137.1429 z"
       id="path4938"
       inkscape:connector-curvature="0"
       inkscape:export-filename="C:\Users\matthew\Projects\disconnected_worlds\src\working\ldoor.png"
       inkscape:export-xdpi="90"
       inkscape:export-ydpi="90" />
    <path
       style="fill:#3d3d3d;fill-opacity:1;stroke:none"
       d="m 454.2857,1346.6479 c -9.20678,-25.7941 -2.85714,-51.8623 -2.85714,-80 0,-22.3238 4.78561,-50.4288 -5.71429,-71.4286 -24.41516,-48.8303 58.29483,-30.2766 74.28571,-14.2857 2.5105,2.5105 -1.57533,150.1468 -8.57143,157.1429 -13.39584,13.3958 -32.79002,18.3125 -57.14285,8.5714 z"
       id="path4940"
       inkscape:connector-curvature="0"
       inkscape:export-filename="C:\Users\matthew\Projects\disconnected_worlds\src\working\rdoor.png"
       inkscape:export-xdpi="90"
       inkscape:export-ydpi="90" />
    <g
       id="g5488"
       transform="matrix(0.80316123,0,0,1.0002843,447.65598,0.13085202)">
      <path
         transform="translate(0,452.36218)"
         inkscape:connector-curvature="0"
         id="path6795"
         d="m 2222.3356,-965.73643 c 30.4979,9.7915 -5.5346,-39.35337 -12.1218,-52.52797 -20.1154,-40.2307 32.4677,-90.628 50.5076,-54.5482 22.9724,45.9448 31.1088,57.7846 -2.0203,90.91373 -4.7978,4.79777 7.7679,42.6425 -36.3655,16.16244 z"
         style="fill:#f195ab;fill-opacity:1;stroke:none" />
      <path
         inkscape:connector-curvature="0"
         id="path6787"
         d="m 1895.0462,-537.61791 c -5.168,-8.8031 -11.7052,-15.32921 -16.1625,-24.24371 -8.3369,-16.6738 -5.8388,-30.7487 2.0203,-46.467 25.88,-51.76 67.3215,27.6329 58.5889,36.3655 -5.0318,5.0318 -23.0685,21.8933 -28.2843,32.3249 -4.8155,9.63092 8.0812,8.2923 8.0812,14.14214 0,1.50584 -5.1054,3.08509 -4.0406,2.0203 1.0648,-1.06479 5.1054,-3.0851 4.0406,-2.0203 -10.1512,10.15122 -35.9647,11.32038 -24.2436,-12.12183 z"
         style="fill:#f195ab;fill-opacity:1;stroke:none" />
      <path
         inkscape:connector-curvature="0"
         id="path6791"
         d="m 1977.8787,-533.5773 c -20.0241,23.53834 -42.5039,-118.22662 12.1218,-90.91372 9.8984,4.9492 52.9971,43.9775 36.3655,60.6091 -6.6557,6.6558 -22.9229,19.58186 -28.2843,30.30462 -6.0282,12.05644 10.8235,9.74055 -2.0203,16.16244 -2.0118,1.00591 -26.264,4.68575 -26.264,0 0,-6.02339 6.6204,-10.3189 8.0813,-16.16244 z"
         style="fill:#f195ab;fill-opacity:1;stroke:none" />
      <path
         inkscape:connector-curvature="0"
         id="path6793"
         d="m 2091.0158,-519.43517 c -40.557,2.74988 -5.1773,-14.39505 -8.0813,-20.20305 -2.5832,-5.16643 -13.3839,-11.3636 -16.1624,-14.1421 -22.2027,-22.2027 -16.2556,-56.3823 -4.0406,-80.8122 2.441,-4.882 9.6769,-1.5958 12.1218,-4.0406 1.2769,-1.2769 10.0899,-6.0668 14.1421,-4.0407 17.2474,8.6237 66.1231,59.1359 42.4265,82.8325 -6.9398,6.9398 -25.1615,11.0194 -28.2843,14.14218 -9.9537,9.95371 31.4157,34.97147 -12.1218,26.26397 z"
         style="fill:#f195ab;fill-opacity:1;stroke:none" />
      <path
         inkscape:connector-curvature="0"
         id="path6797"
         d="m 2145.564,-519.43517 c 30.7003,2.02202 2.0203,-20.59535 2.0203,-38.38575 0,-15.1904 -2.0203,-28.7818 -2.0203,-44.4468 0,-18.28 15.4165,-43.8095 34.3452,-34.3451 14.8136,7.4068 37.2504,69.8257 20.203,86.8731 -6.5112,6.51123 -14.3598,12.3395 -20.203,18.18272 -3.0695,3.06944 10.644,13.59961 8.0812,16.16244 -5.8923,5.89232 -36.9634,-2.948 -42.4264,-4.04061 z"
         style="fill:#f195ab;fill-opacity:1;stroke:none" />
      <path
         inkscape:connector-curvature="0"
         id="path6799"
         d="m 1826.3558,-511.35395 c 28.8025,-6.47689 4.102,-36.24271 -4.0406,-52.52797 -25.4302,-50.8602 0.8624,-88.031 44.4467,-44.4467 7.4649,7.465 21.1892,47.5012 10.1015,58.5889 -4.3079,4.30793 -12.6455,13.16911 -16.1624,20.20303 -3.1852,6.37028 13.4599,14.82434 8.0812,20.20305 -8.5208,8.52075 -33.5604,3.29928 -42.4264,-2.02031 z"
         style="fill:#f195ab;fill-opacity:1;stroke:none" />
    </g>
    <path
       style="fill:#3d3d3d;fill-opacity:1;stroke:none"
       d="m 1648.5689,-406.29806 c 5.9609,-46.8914 -4.4423,-185.46636 24.2437,-214.15236 1.0081,-1.0081 8.5196,0 10.1015,0 29.5442,0 22.3103,38.6468 28.2843,56.5686 21.6022,64.80653 -41.9591,105.90783 -62.6295,157.58376 z"
       id="path5496"
       inkscape:connector-curvature="0"
       inkscape:export-filename="C:\Users\matthew\Projects\disconnected_worlds\src\working\ldoor32.png"
       inkscape:export-xdpi="90"
       inkscape:export-ydpi="90" />
    <path
       style="fill:#3d3d3d;fill-opacity:1;stroke:none"
       d="m 1546.5486,-772.35897 c -2.6671,-27.61414 1.7435,-51.69756 10.1015,-76.77159 15.4917,-46.47494 -19.6472,-87.42886 20.2031,-127.27926 12.8264,-12.8263 34.3452,43.2537 34.3452,52.528 0,85.01918 -28.7895,91.75576 -64.6498,151.52285 z"
       id="path5498"
       inkscape:connector-curvature="0"
       inkscape:export-filename="C:\Users\matthew\Projects\disconnected_worlds\src\working\ldoor3.png"
       inkscape:export-xdpi="90"
       inkscape:export-ydpi="90" />
  </g>
</svg>
