<?xml version="1.0" encoding="UTF-8" standalone="no"?>
<!-- Created with Inkscape (http://www.inkscape.org/) -->

<svg
   xmlns:dc="http://purl.org/dc/elements/1.1/"
   xmlns:cc="http://creativecommons.org/ns#"
   xmlns:rdf="http://www.w3.org/1999/02/22-rdf-syntax-ns#"
   xmlns:svg="http://www.w3.org/2000/svg"
   xmlns="http://www.w3.org/2000/svg"
   xmlns:sodipodi="http://sodipodi.sourceforge.net/DTD/sodipodi-0.dtd"
   xmlns:inkscape="http://www.inkscape.org/namespaces/inkscape"
   width="64"
   height="100"
   id="svg7154"
   version="1.1"
   inkscape:version="0.48.4 r9939"
   sodipodi:docname="player.svg"
   inkscape:export-filename="C:\Users\matthew\Projects\disconnected_worlds\src\working\idle2.png"
   inkscape:export-xdpi="180"
   inkscape:export-ydpi="180">
  <defs
     id="defs7156" />
  <sodipodi:namedview
     id="base"
     pagecolor="#ffffff"
     bordercolor="#666666"
     borderopacity="1.0"
     inkscape:pageopacity="0.0"
     inkscape:pageshadow="2"
     inkscape:zoom="1.4"
     inkscape:cx="29.393205"
     inkscape:cy="66.094257"
     inkscape:document-units="px"
     inkscape:current-layer="layer1"
     showgrid="false"
     inkscape:window-width="1366"
     inkscape:window-height="706"
     inkscape:window-x="-8"
     inkscape:window-y="-8"
     inkscape:window-maximized="1" />
  <metadata
     id="metadata7159">
    <rdf:RDF>
      <cc:Work
         rdf:about="">
        <dc:format>image/svg+xml</dc:format>
        <dc:type
           rdf:resource="http://purl.org/dc/dcmitype/StillImage" />
        <dc:title></dc:title>
      </cc:Work>
    </rdf:RDF>
  </metadata>
  <g
     inkscape:label="Layer 1"
     inkscape:groupmode="layer"
     id="layer1"
     transform="translate(0,-2004.7244)">
    <g
       id="g7929"
       transform="translate(180,0)"
       inkscape:export-filename="C:\Users\matthew\Projects\disconnected_worlds\src\working\up2.png"
       inkscape:export-xdpi="180"
       inkscape:export-ydpi="180">
      <g
         transform="matrix(1.0325757,0,0,1.0325757,-121.04807,-66.93774)"
         id="g7753">
        <path
           style="fill:#a0c3ef;fill-opacity:1;stroke:none"
           d="m 18.687822,2038.8167 c -0.803355,-3.0208 -0.505076,-6.4298 -0.505076,-9.6874 0,-4.3588 -0.538422,-11.7665 2.020305,-14.8337 6.051454,-7.2542 18.452734,-8.7478 23.486047,0.3027 4.008446,7.2077 1.26269,21.4607 1.26269,28.7593"
           id="path7180"
           inkscape:connector-curvature="0" />
        <path
           style="fill:#ffb8cb;fill-opacity:1;stroke:none"
           d="M 24.496199,31.814703 C 20.246928,26.286852 4.6348407,31.487935 8.3337585,38.885771 c 1.5045186,3.009037 6.3714715,1.796776 8.8388345,3.030458 0.956495,0.478247 1.573287,1.670527 2.77792,2.272843 2.912643,1.456322 6.189777,-2.082143 8.838835,-0.757615 3.903229,1.951615 19.925328,2.411705 23.738584,0.505077 1.739949,-0.869975 4.986213,-5.432402 3.788072,-7.828683 -1.336973,-2.673946 -18.47449,-1.806973 -18.687822,-2.020305 -0.755682,-0.755682 -2.525228,-2.020152 -3.535534,-3.030457 -1.192187,-1.192187 -8.375886,0.269389 -9.596449,0.757614 z"
           id="path7176"
           inkscape:connector-curvature="0"
           transform="translate(0,2004.7244)" />
        <path
           style="fill:#e9a9ba;fill-opacity:1;stroke:none"
           d="m 8.3061998,38.537073 c 1.2253144,1.138035 9.8627252,0.167566 10.0866572,0.391498 1.110352,1.110352 -1.299302,2.028921 3.214286,4.285715 1.612667,0.806333 4.048121,-3.630451 5.357143,-2.321429 1.119861,1.119861 3.569649,0.356253 5,1.071429 1.359632,0.679816 3.61757,1.427757 5.043328,1.90301 2.427046,0.809014 4.23228,-1.428502 6.574458,-1.435825 0,0 5.797258,0.215895 8.382214,-0.645757 0.800359,-0.266786 1.636842,-0.20827 2.142857,-0.714286 0.987868,-0.987868 1.384703,-2.233691 1.964286,-3.392857 -0.07504,4.383002 -2.110515,6.364546 -6.607847,7.431831 -5.593787,1.327491 -14.44358,0.964286 -21.606439,-1.181831 -1.908329,-0.571768 -4.445802,2.062814 -6.785714,0.892857 -1.053229,-0.526614 -2.296166,-1.964285 -3.214286,-1.964285 -0.272825,0 -1.374056,-0.687028 -1.785714,-0.892857 -1.238198,-0.619099 -8.4583654,-0.654667 -7.7652292,-3.427213 z"
           id="path7718"
           inkscape:connector-curvature="0"
           sodipodi:nodetypes="cssssscsscsssssc"
           transform="translate(0,2004.7244)" />
        <path
           style="opacity:0.5;fill:#000000;fill-opacity:1;stroke:none"
           d="m 25.75889,86.615479 c -4.159848,-0.114316 -7.572208,0.376839 -10.85914,2.020305 -0.454578,0.227289 -0.505076,0.634729 -0.505076,1.262691 0,3.583771 5.320669,2.155258 7.576144,3.282995 0.882382,0.441191 1.350703,1.350704 2.020305,2.020305 0.172448,0.172448 5.345224,1.367999 5.555839,1.262691 2.135211,-1.067606 6.182941,-0.879641 7.828682,-2.525381 0.559211,-0.559211 6.804876,0.771268 8.333759,-0.757615 4.620149,-4.620149 -9.337276,-5.808377 -12.626907,-5.808377 -2.262239,0 -5.309081,-0.354709 -7.323606,-0.757614 z"
           id="path7184"
           inkscape:connector-curvature="0"
           transform="translate(0,2004.7244)" />
        <path
           style="fill:#f2f2f2;fill-opacity:1;stroke:none"
           d="m 20.535714,21.25 c 0.650708,-1.056069 1.528577,-1.753578 2.321429,-2.678572 C 23.721954,17.562482 32.239606,6.8824627 32.5,7.1428569 c 1.062712,1.0627116 3.233932,6.3744931 5,8.3928571 0.665951,0.761087 5.357143,5.890861 5.357143,6.785714 0,0.609127 -4.470031,0.714286 -4.821429,0.714286 -2.439869,0 -4.744078,-0.771581 -7.142857,-1.071428 -2.633929,-0.329242 -5.384172,0.178571 -8.035714,0.178571 -0.24376,0 -1.646449,0.174081 -1.785714,0 C 20.854609,21.871833 20.714286,21.547619 20.535714,21.25 z"
           id="path7702"
           inkscape:connector-curvature="0"
           transform="translate(0,2004.7244)" />
        <path
           style="fill:#4c4c4c;fill-opacity:1;stroke:none"
           d="m 30,17.321428 c -0.50014,-0.48366 -0.53856,0.705749 -1.071429,-0.892857 -1.038129,-3.114387 3.027673,-2.694656 4.107143,-0.535714 C 34.103551,18.028531 31.2559,18.326148 30,17.321428 z"
           id="path7704"
           inkscape:connector-curvature="0"
           transform="translate(0,2004.7244)" />
        <path
           style="fill:#8aacd7;fill-opacity:1;stroke:none"
           d="m 26.785714,13.392857 c 1.700919,-1.770053 4.003908,-5.0753365 5.535715,-6.607143 0.426493,-0.4264932 4.107143,6.498069 4.107143,6.964285 0,0.213514 -2.39535,-0.50083 -2.5,-0.535713 -1.822474,-0.607492 -5.172856,-0.21543 -7.142858,0.178571 z"
           id="path7712"
           inkscape:connector-curvature="0"
           sodipodi:nodetypes="csssc"
           transform="translate(0,2004.7244)" />
      </g>
      <g
         transform="matrix(1.0325757,0,0,1.0325757,-243.00261,-66.93774)"
         id="g7744">
        <path
           style="fill:#e9a9ba;fill-opacity:1;stroke:none"
           d="m 68.586297,2042.6 c 0.389537,3.1252 4.514941,6.0609 7.828682,6.0609 0.469163,0 2.99532,-1.2978 3.535534,-0.7576 1.35054,1.3506 5.994397,-0.066 6.313453,0.2526 0.399142,0.3991 2.188471,0.7576 2.77792,0.7576 1.269476,0 4.649577,-0.832 5.303301,-0.5051 2.322648,1.1613 3.81634,1.0101 6.565993,1.0101 2.14289,0 2.19635,0.4669 3.78807,1.2627 0.95225,0.4762 2.80911,-0.3944 3.53553,-0.7576 1.9353,-0.9676 3.94146,-0.2029 5.05077,-0.7576 0.6818,-0.3409 1.01481,-2.2728 0.25253,-2.2728 -2.4609,0 -12.86146,2.2818 -14.394669,1.5152 -2.215217,-1.1076 -5.370908,-3.973 -6.81853,-2.5254 -1.050453,1.0505 -5.152521,0.4033 -6.060915,-0.5051 -0.07709,-0.077 -1.927007,-1.0101 -1.767767,-1.0101 1.377722,0 -4.458355,1.3063 -5.050762,1.0101 -3.439217,-1.7196 -6.797581,-0.3409 -10.85914,-2.7779 z"
           id="path7724"
           inkscape:connector-curvature="0" />
        <path
           style="fill:#a0c3ef;fill-opacity:1;stroke:none"
           d="m 78.182746,2037.8018 c -0.09782,-4.549 -1.683668,-9.6803 -0.505076,-14.3947 0.647956,-2.5918 0.331372,-6.1397 2.272843,-8.0812 3.982281,-3.9823 13.009444,-9.4665 18.182746,-4.2931 1.029632,1.0296 3.176241,0.7966 4.293151,3.0304 2.21056,4.4211 3.53553,9.3385 3.53553,15.4048 0,3.4269 -0.50507,6.8238 -0.50507,10.3541 0,0.2805 0.17857,1.5892 0,1.7678 -0.35963,0.3596 -0.71972,0.2715 -1.2627,0"
           id="path7726"
           inkscape:connector-curvature="0" />
        <path
           style="fill:#ffb8cb;fill-opacity:1;stroke:none"
           d="m 77.425131,2045.1254 c -9.014228,1.7524 -11.649176,-4.2769 -3.535533,-8.3338 1.305273,-0.6526 3.087055,-0.603 4.293148,0 0.405011,0.2025 2.890794,1.08 3.030457,1.0102 0.777045,-0.3885 5.486331,-2.8474 6.81853,-1.5152 0.230063,0.23 3.760584,2.2591 4.293148,2.5253 0.754271,0.3772 8.067589,-1.2763 10.354069,1.0102 1.38879,1.3888 7.96222,-2.5108 10.10152,1.7678 4.38876,8.7775 -3.0611,4.8288 -4.29315,6.0609 -0.52974,0.5297 -1.51825,-0.1248 -2.27284,0.2525 -4.51571,2.2579 -8.4929,0.047 -12.121832,-1.7677 -1.420446,-0.7103 -3.12524,1.4678 -4.545686,0.7576 -0.623293,-0.3117 -2.613906,-0.3411 -3.030458,-0.7576 -0.502814,-0.5029 -0.69284,-1.1041 -1.515228,-1.5153 -0.07699,-0.039 -1.428394,1.1759 -1.515229,1.2627 -0.499377,0.4994 -5.341596,-0.326 -6.060916,-0.7576 z"
           id="path7720"
           inkscape:connector-curvature="0" />
        <path
           style="fill:#f2f2f2;fill-opacity:1;stroke:none"
           d="m 80.455589,2025.9325 c 0.478818,0.2059 1.637813,-1.8903 3.788072,-4.0406 3.200274,-3.2003 4.853331,-7.8562 8.333759,-9.5965 0.632193,-0.3161 7.6324,10.4666 8.33376,11.8693 0.29218,0.5844 2.68463,2.3662 1.76777,3.283 -0.98929,0.9893 -19.790866,-0.9303 -20.96067,-1.5152"
           id="path7730"
           inkscape:connector-curvature="0" />
        <path
           style="fill:#8aacd7;fill-opacity:1;stroke:none"
           d="m 87.486822,2017.5987 c 1.155861,0.891 3.148922,-0.3394 4.317049,0.2446 0.835011,0.4175 5.298299,1.5441 6.076849,0.7656 0.136295,-0.1363 -2.459143,-3.9744 -2.777919,-4.2932 -0.240242,-0.2402 -2.474285,-2.829 -2.77792,-2.5253 -1.534001,1.534 -2.750042,2.7193 -4.838059,5.8083 z"
           id="path7732"
           inkscape:connector-curvature="0"
           sodipodi:nodetypes="cccccc" />
        <path
           style="fill:#4a4a4a;fill-opacity:1;stroke:none"
           d="m 90.557115,2022.397 c -5.144047,-3.8154 5.043664,-4.7841 2.525381,0.2525 -0.385264,0.7705 -2.257397,-0.1453 -2.525381,-0.2525 z"
           id="path7740"
           inkscape:connector-curvature="0" />
        <path
           style="opacity:0.5;fill:#000000;fill-opacity:1;stroke:none"
           d="m 83.233509,2098.1584 c -3.236702,1.1477 -11.31013,-2.0744 -7.828683,-5.5558 0.605062,-0.6051 2.403719,-0.7171 3.282996,-1.0102 0.622488,-0.2075 22.679458,0.9857 23.738588,1.5152 0.36412,0.1821 5.82974,2.2515 4.04061,4.0407 -3.93167,3.9316 -6.14668,-0.5885 -9.343914,1.0101 -3.85595,1.928 -10.837187,6.1048 -13.889597,0 z"
           id="path7742"
           inkscape:connector-curvature="0" />
      </g>
      <g
         transform="translate(-180,100)"
         id="g7772">
        <path
           style="fill:#a0c3ef;fill-opacity:1;stroke:none"
           d="m 17.951757,2038.0728 c -0.765049,-8.5603 -1.680538,-23.3738 6.051095,-27.6066 1.934042,-1.0589 5.259518,-0.5328 6.807482,-1.3804 3.420266,-1.8724 9.038154,1.0622 10.841546,3.0369 4.810688,5.2674 3.025547,20.6929 3.025547,28.4347"
           id="path7768"
           inkscape:connector-curvature="0" />
        <path
           style="fill:#ffb8cb;fill-opacity:1;stroke:none"
           d="m 17.67767,42.673843 c -5.658514,3.101306 -17.50678709,-5.136204 -8.0812208,-9.848987 1.5789078,-0.789454 4.2950758,-0.504113 5.8083768,0.252538 0.133764,0.06688 0.950253,1.32259 1.262691,1.010152 0.684709,-0.684709 0.666875,-2.353742 2.020305,-3.030457 0.650478,-0.325239 6.569429,2.023742 6.81853,2.272843 0.183634,0.183634 4.829766,-0.773385 5.303301,-1.010153 2.272076,-1.136038 5.555155,1.767425 7.071067,2.525382 0.388775,0.194387 2.012321,-1.262691 3.030458,-1.262691 1.387218,0 6.933179,-0.642965 7.828682,0.252538 0.266199,0.266199 0.128615,1.010153 0.505077,1.010153 0.06879,0 0.752113,-0.752113 0.757614,-0.757615 1.249609,-1.249608 4.857016,1.57402 5.303301,2.020305 0.292021,0.292021 0.308067,1.373749 0.505076,1.767767 1.811278,3.622557 -2.40216,5.808378 -5.808377,5.808378 -0.963785,0 -6.91334,-1.420419 -7.071068,-1.262691 -1.020255,1.020255 -1.263123,1.431194 -3.030457,2.020305 -1.685662,0.561887 -4.697256,-0.833399 -6.060916,-1.515229 -1.581561,-0.790781 -5.161885,1.964744 -8.08122,0.505076 -1.317725,-0.658862 -1.852866,-1.557778 -2.77792,-2.020305 -1.588722,-0.794361 -3.166383,1.690074 -5.3033,1.262691 z"
           id="path7762"
           inkscape:connector-curvature="0"
           transform="translate(0,2004.7244)" />
        <path
           style="opacity:0.5;fill:#000000;fill-opacity:1;stroke:none"
           d="m 24.748737,94.191623 c -1.460872,0.521284 -9.978922,-1.002821 -9.343911,-2.272843 2.68978,-5.379561 22.001228,-4.025406 26.516505,-1.767767 1.022116,0.511058 4.46475,1.929639 3.535534,3.788072 -1.292032,2.584062 -7.81308,0.489474 -8.586297,1.26269 -3.05518,3.05518 -10.83678,5.415095 -12.121831,-1.010152 z"
           id="path7766"
           inkscape:connector-curvature="0"
           transform="translate(0,2004.7244)" />
        <path
           style="fill:#e9a9ba;fill-opacity:1;stroke:none"
           d="M 9.0913729,41.411152 C 11.84822,44.812844 21.428313,38.595804 21.71828,38.885771 c 1.055333,1.055334 3.130426,3.711787 4.798224,4.545686 3.238279,1.61914 4.634936,-1.686122 6.81853,-2.777919 0.599714,-0.299857 0.702321,0.982505 1.262691,1.262691 0.782342,0.391171 2.010845,0.243078 2.525381,0.757614 1.536207,1.536207 4.693276,-2.125254 4.798225,-2.020305 1.314719,1.31472 6.282376,2.414651 8.586296,1.262691 1.042837,-0.521419 3.540327,-1.014945 4.293149,-1.767767 0.07313,-0.07313 0.933346,-0.834421 1.010152,-0.757615 1.192782,1.192782 -1.814434,3.582201 -2.272843,4.04061 -2.630812,2.630812 -8.97322,1.010153 -11.616754,1.010153 -0.843501,0 -1.572369,0.407377 -2.272844,0.757614 -1.079112,0.539556 -4.659728,-0.562097 -5.555839,-1.010152 -2.133331,-1.066666 -7.340271,2.26451 -10.354063,0.757614 -1.048102,-0.524051 -1.45158,-1.609673 -2.272843,-2.020305 -1.690809,-0.845404 -8.892281,4.288252 -12.3743691,-1.515229 z"
           id="path7770"
           inkscape:connector-curvature="0"
           transform="translate(0,2004.7244)" />
      </g>
      <g
         transform="translate(-120,100)"
         style="stroke:none"
         id="g7786">
        <path
           style="fill:#a0c3ef;fill-opacity:1;stroke:none"
           d="m 44.446712,35.097699 c 0.708794,-4.166225 -0.505076,-8.487558 -0.505076,-12.626907 0,-3.138673 -1.010153,-5.866659 -1.010153,-8.838835 0,-5.2464662 -5.468866,-12.4178549 -11.616754,-9.3439108 -2.442297,1.2211483 -4.436919,0.1437711 -6.565992,2.2728433 -1.729565,1.7295649 -3.366831,4.7133585 -4.545686,7.0710675 -0.739787,1.479574 -2.640468,20.087965 -1.515229,21.213204 0.740747,0.740746 7.869689,2.777919 9.343911,2.777919 4.116661,0 9.303316,1.409258 13.131983,-0.505076"
           id="path7780"
           inkscape:connector-curvature="0"
           transform="translate(0,2004.7244)" />
        <path
           style="fill:#ffb8cb;fill-opacity:1;stroke:none"
           d="m 18.182746,32.067241 c -2.566131,-0.841626 -5.716174,-2.112508 -7.828682,0 -2.6109176,2.610917 -1.7015675,7.482975 1.515228,9.091373 1.692815,0.846407 4.294395,-0.252538 5.303301,-0.252538 0.06393,0 -0.08516,2.102525 0,2.272843 0.454005,0.908009 1.659849,0.97418 2.525382,1.262691 2.717021,0.905674 5.506212,-0.707988 7.071067,-2.272843 0.109225,-0.109224 2.408978,1.392248 2.77792,1.515229 2.339366,0.779788 6.442414,-0.634037 7.828682,-2.020306 0.142205,-0.142205 1.903011,1.64449 2.272843,1.767767 1.466132,0.488711 5.29283,0.761105 6.81853,0.252539 1.914673,-0.638225 3.292083,-1.524316 4.545687,-2.77792 0.533819,-0.533819 2.271001,-0.250696 2.777919,-0.757614 2.087699,-2.0877 -2.046187,-4.937435 -3.282996,-5.555839 -1.044323,-0.522162 -2.429875,0 -3.788072,0 -0.620452,0 -3.894851,-1.382464 -5.050762,-1.767767 -1.574575,-0.524859 -4.072711,1.405009 -5.303301,2.020305 -0.650093,0.325046 -1.353167,-1.434198 -2.020305,-1.767767 -2.012124,-1.006062 -6.747084,1.26269 -8.081221,1.26269 -0.297079,0 -1.975049,-1.745139 -2.525381,-2.020305 -1.577677,-0.788838 -4.545687,0.0217 -4.545687,1.767767"
           id="path7778"
           inkscape:connector-curvature="0"
           transform="translate(0,2004.7244)" />
        <path
           style="fill:#e9a9ba;fill-opacity:1;stroke:none"
           d="m 9.5964492,38.128157 c 0.6343688,2.920419 4.6432658,2.72913 6.5659918,1.767766 0.144293,-0.07215 0.51171,-0.75098 0.757614,-0.505076 0.426721,0.426721 0.109919,1.625148 0.505076,2.020305 1.412461,1.412461 2.599684,1.173573 4.293149,2.020305 0.776379,0.38819 1.886575,0.386268 2.525381,-0.252538 0.09895,-0.09894 1.985286,-2.777919 2.020305,-2.777919 0.037,0 2.42085,1.84177 3.282996,2.272843 2.934826,1.467413 5.513054,-1.97752 6.81853,-3.282996 0.107363,-0.107363 1.128919,1.069536 1.515228,1.262691 1.393538,0.696769 3.124871,1.183628 4.798225,2.020305 3.781863,1.890931 6.219493,-2.431421 7.576144,-3.788072 0.261445,-0.261445 0.829601,0.667338 1.010153,0.757614 0.735571,0.367786 2.546981,-1.031752 2.525381,-1.010152 -0.490846,0.490846 -0.01423,1.529459 -0.505076,2.020305 -1.466249,1.466248 -3.535534,1.655332 -3.535534,1.515229 0,-1.196414 -1.707815,1.73779 -2.77792,2.272843 -0.95228,0.47614 -5.217315,1.558221 -6.313453,1.010152 -0.612545,-0.306272 -3.728521,-1.827317 -4.545686,-1.010152 -1.412335,1.412335 -7.137539,1.448758 -8.586297,0 -0.226592,-0.226592 -1.083332,0.667935 -1.262691,0.757614 -0.703449,0.351725 -6.050129,1.526016 -6.818529,0.757615 -0.735447,-0.735447 -1.897045,-2.149583 -2.77792,-3.030458 -0.869922,-0.869922 -3.208678,-0.430759 -4.04061,-1.262691 -1.289192,-1.289191 -2.01582,-2.182684 -3.0304578,-3.535533 z"
           id="path7784"
           inkscape:connector-curvature="0"
           transform="translate(0,2004.7244)" />
        <path
           style="opacity:0.5;fill:#000000;fill-opacity:1;stroke:none"
           d="m 23.991123,94.696699 c -2.131582,1.879588 -8.879153,-2.232525 -7.323606,-3.788072 1.36259,-1.36259 8.615549,-1.571587 10.85914,-2.020305 2.942711,-0.588542 5.939743,0.127968 8.586297,1.010153 1.824962,0.60832 3.995076,-0.02277 5.555839,0.757614 0.567663,0.283831 2.925259,2.378041 2.272843,3.030458 -1.559293,1.559293 -5.443621,1.150472 -5.555839,1.26269 -3.956456,3.956456 -11.474811,5.587193 -14.394674,-0.252538 z"
           id="path7782"
           inkscape:connector-curvature="0"
           transform="translate(0,2004.7244)" />
      </g>
      <g
         transform="translate(-60,100)"
         id="g7800">
        <path
           style="fill:#a0c3ef;fill-opacity:1;stroke:none"
           d="m 18.94036,2041.02 c -1.221182,-4.6035 -0.757614,-9.902 -0.757614,-14.8921 0,-2.6116 0.52611,-5.5846 1.262691,-7.9977 0.9254,-3.0317 0.967224,-4.0898 3.282995,-6.6187 1.693992,-1.8499 6.398607,-3.5387 8.838835,-2.2063 3.134234,1.7114 7.274171,0.1678 9.091373,4.1367 1.780907,3.8897 5.751331,27.9162 2.777919,31.1633 -0.544375,0.5945 -5.361026,-0.4452 -6.060915,-0.8274"
           id="path7792"
           inkscape:connector-curvature="0" />
        <path
           style="opacity:0.5;fill:#000000;fill-opacity:1;stroke:none"
           d="m 22.475894,95.201775 c -2.157505,1.122485 -7.968508,-2.960544 -4.798224,-4.545686 2.244058,-1.122029 4.904977,-1.515229 7.576144,-1.515229 2.091214,0 4.270986,-0.505076 6.313453,-0.505076 1.659617,0 3.647761,0.505076 5.303301,0.505076 1.965426,0 8.573881,1.034983 7.071068,4.04061 -1.054617,2.109233 -3.888855,0.100783 -5.050763,1.262691 -4.068595,4.068595 -11.970803,6.683179 -16.414979,0.757614 z"
           id="path7794"
           inkscape:connector-curvature="0"
           transform="translate(0,2004.7244)" />
        <path
           sodipodi:nodetypes="ccscscccccccscscccc"
           style="fill:#ffb8cb;fill-opacity:1;stroke:none"
           d="m 19.53037,2037.8952 c -1.289236,-2.4477 -11.4678915,-3.6234 -9.372216,0.568 0.265406,0.5308 1.136026,1.8962 1.136026,2.272 0,0.064 -2.1020401,-0.085 -2.2720528,0 -0.5174369,0.2588 -2.2840353,1.6921 -1.4200331,2.5561 2.4320069,2.432 3.8865379,2.7953 7.3841709,4.5441 1.156561,0.5783 4.050689,-1.6294 5.112118,-0.568 0.15657,0.1566 -0.661436,1.3266 -0.284007,1.704 0.495707,0.4957 3.009219,1.837 4.260098,1.4201 1.314779,-0.4383 3.100736,-0.2724 4.260099,-0.8521 1.047478,-0.5237 3.842443,-2.7648 4.828112,-2.272 0.862018,0.431 1.809317,1.2413 2.272052,1.704 1.747007,1.747 15.62036,0.3291 15.62036,-4.5441 0,-0.635 0.157342,-0.1577 1.70404,-0.852 0.841442,-1.6829 -1.270977,-3.1241 -2.556059,-3.1241 -0.738396,0 -4.711724,0.9684 -4.828111,0.8521 -2.827653,-2.8277 -11.741,-3.8794 -14.768341,-0.8521 -0.251571,0.2516 -0.9858,0.075 -1.136027,0 -2.76058,-1.3803 -6.242574,-2.556 -9.940229,-2.556 z"
           id="path7796"
           inkscape:connector-curvature="0" />
        <path
           style="fill:#e9a9ba;fill-opacity:1;stroke:none"
           d="m 7.6020941,2041.8712 c 0.2542526,2.0955 4.9445089,4.385 7.9521839,2.6386 2.03208,-1.18 4.51811,-0.36 4.544105,-0.3299 0.439229,0.5102 -0.0042,1.6443 0.568013,2.3087 2.576563,2.9922 9.154865,1.5717 11.644269,-1.3192 0.351807,-0.4085 3.218682,3.2981 4.544105,3.2981 4.826557,0 6.536391,-1.3241 9.08821,-4.2876 0.630688,-0.7323 5.964137,4.0427 5.964137,-1.9788 0,-0.2199 0,0.4397 0,0.6597 0,1.7966 -0.07454,3.3413 -1.704039,4.2875 -0.704785,0.4093 -3.851303,0.5147 -4.260098,0.9895 -0.206977,0.2403 -0.0039,1.3237 -0.284007,1.649 -1.275918,1.4818 -3.755014,2.3087 -5.396125,2.3087 -2.791926,0 -6.103969,-1.1518 -7.38417,-2.6385 -0.449053,-0.5214 -1.136026,0.6596 -1.704039,0.9895 -0.697057,0.4047 -2.940811,0.6596 -3.692086,0.6596 -4.294576,0 -7.707328,-1.0349 -10.224236,-3.9578 -0.365878,-0.4248 -5.125526,5.2459 -9.6562229,-5.2771 z"
           id="path7798"
           inkscape:connector-curvature="0"
           sodipodi:nodetypes="csccssssssscsssssc" />
      </g>
      <g
         transform="translate(-60,0)"
         id="g7823">
        <path
           style="fill:#a0c3ef;fill-opacity:1;stroke:none"
           d="m 17.930208,2037.2967 c -1.185364,-4.6571 -0.691799,-9.5013 -0.732842,-14.2509 0.14556,-3.3245 -0.360129,-6.7842 1.984677,-9.3736 2.057242,-2.7742 2.725031,-2.548 3.553603,-3.8068 1.056536,-1.5141 3.263645,-1.5945 5.02374,-1.9919 2.705888,-0.6138 5.648323,-0.9377 8.318167,0 2.372539,1.2812 5.329712,2.0885 6.72216,4.6081 1.263295,2.5234 1.777622,5.3526 2.235829,8.1153 0.444556,2.9423 -0.01012,5.9101 0.06159,8.8593 0.622892,2.438 0.876812,5.0712 0.236491,7.5317 -0.488987,1.1568 0.64771,3.1871 -1.466987,2.6006 -5.308913,0.018 -10.625753,0.1473 -15.92869,-0.1528 -1.51352,-0.4606 -3.088882,-0.6839 -4.687522,-0.66 -1.854935,-0.078 -3.724921,-0.4966 -5.320214,-1.477 z"
           id="path7808"
           inkscape:connector-curvature="0"
           sodipodi:nodetypes="ccccccccccccccc" />
        <path
           style="fill:#f2f2f2;fill-opacity:1;stroke:none"
           d="m 19.950513,19.945411 c 4.857451,-3.731682 8.921076,-11.19392 12.12183,-14.3946741 0.413235,-0.413235 0.746304,0.9988413 0.757615,1.0101526 0.798566,0.7985663 2.407148,2.7939915 3.030457,4.0406105 1.747515,3.495029 6.81853,7.892282 6.81853,11.364216 0,0.266198 -0.569384,-0.06431 -0.757614,-0.252538 -0.482341,-0.482341 -3.016722,-0.252538 -3.788072,-0.252538 -6.504118,0 -12.347383,0.818916 -18.182746,-1.515229 z"
           id="path7810"
           inkscape:connector-curvature="0"
           transform="translate(0,2004.7244)" />
        <path
           style="fill:#8aacd7;fill-opacity:1;stroke:none"
           d="m 26.769042,11.359114 c 0.893475,-0.532596 10.364076,0.495064 10.606602,0.252538 C 37.569961,11.417335 34.810412,9.04642 34.597725,8.8337327 34.157412,8.3934197 32.737915,4.712875 32.072343,5.0456606 31.166781,5.4984416 29.97963,7.6434508 29.294424,8.3286564 28.676827,8.9462533 27.841078,10.501486 26.769042,11.359114 z"
           id="path7812"
           inkscape:connector-curvature="0"
           transform="translate(0,2004.7244)"
           sodipodi:nodetypes="cssssc" />
        <path
           style="fill:#4c4c4c;fill-opacity:1;stroke:none"
           d="m 29.041886,16.157339 c -1.000152,-1.511822 -0.360921,-2.056078 0.252538,-3.282996 0.862954,-1.725908 5.144841,0.916074 2.525381,3.535534 -0.789279,0.789279 -1.714616,0.544939 -2.777919,-0.252538 z"
           id="path7814"
           inkscape:connector-curvature="0"
           transform="translate(0,2004.7244)" />
        <path
           style="fill:#ffb8cb;fill-opacity:1;stroke:none"
           d="M 8.5862966,34.592623 C 9.0204984,31.824056 16.909879,28.40035 19.192898,29.54186 c 0.94791,0.473954 3.061786,3.51987 4.040611,3.030458 2.565124,-1.282563 7.83159,-2.775011 10.101525,-0.505077 0.677812,0.677812 2.513353,0.24051 3.282996,1.010153 0.0034,0.0034 3.810365,-1.021299 4.293148,-1.262691 2.655424,-1.327712 5.050188,1.514654 6.060915,2.525381 0.02687,0.02688 1.420914,-1.420913 1.515229,-1.515228 0.435483,-0.435483 3.608826,0 4.293149,0 1.980809,0 3.881878,4.199341 2.525381,5.555839 -0.501394,0.501394 -0.69227,1.449884 -1.262691,2.020305 -2.458953,2.458953 -10.290181,1.925977 -13.131983,0.505076 -1.457953,-0.728976 -2.919993,1.822999 -4.545686,1.010153 -2.662237,-1.331119 -5.967263,-1.84721 -8.333759,-3.030458 -1.359723,-0.679861 -9.126517,4.76308 -13.889597,0 -0.679385,-0.679385 -1.143687,-1.648763 -1.767767,-2.272843 -0.422676,-0.422676 -6.4419982,2.402904 -3.7880724,-2.020305 z"
           id="path7816"
           inkscape:connector-curvature="0"
           transform="translate(0,2004.7244)" />
        <path
           style="fill:#e9a9ba;fill-opacity:1;stroke:none"
           d="m 7.8286822,36.612928 c 0.662352,3.714407 3.3686838,4.462261 6.5659918,6.060915 0.45794,0.22897 1.994253,-0.783666 2.525381,-0.252538 0.657026,0.657026 2.129502,3.102128 4.293148,2.020305 1.270921,-0.63546 7.000671,-2.308042 8.081221,-1.767767 1.114308,0.557154 2.952137,1.689447 3.535534,2.272843 0.489232,0.489233 2.579214,0.405724 3.282996,0.757615 2.089006,1.044503 4.978686,-1.677536 6.818529,-0.757615 1.772991,0.886496 4.648938,1.589872 6.81853,0.505076 3.483981,-1.74199 5.555839,-1.358866 5.555839,-6.060915 0,-0.321197 0.204443,-1.815862 0,-2.020305 -0.371081,-0.371081 -0.222383,0.697305 -0.252538,0.757615 -0.382681,0.765362 -1.073302,1.073301 -1.515229,1.515228 -1.301987,1.301987 -5.208105,0.757615 -6.81853,0.757615 -2.722165,0 -4.339917,-0.907268 -6.060915,-1.767767 -0.110415,-0.05521 -3.882908,1.436378 -4.545686,1.767767 -2.173537,1.086768 -6.501117,-2.240406 -8.081221,-3.030458 -0.378048,-0.189024 -4.273343,1.495423 -4.545686,1.767767 -0.146154,0.146154 -0.897175,-0.252538 -1.262691,-0.252538 -1.562012,0 -3.906467,0.31961 -5.050763,-0.252538 -0.878501,-0.439251 -3.629149,-2.525382 -3.788072,-2.525382 -2.410594,0 -2.813967,1.601826 -5.5558388,0.505077 z"
           id="path7818"
           inkscape:connector-curvature="0"
           transform="translate(0,2004.7244)" />
        <path
           style="opacity:0.5;fill:#000000;fill-opacity:1;stroke:none"
           d="m 15.657364,2094.3703 c 2.354046,-1.7063 6.219405,-1.5152 9.343912,-1.5152 2.73843,0 5.220334,1.0102 7.828682,1.0102 2.34648,0 15.751506,-0.1883 13.637059,4.0406 -0.825896,1.6518 -5.146914,-0.2045 -6.565991,0.505 -0.351918,0.176 -1.813224,0.046 -2.020306,0.2526 -1.506263,1.5062 -4.793423,2.2704 -6.818529,3.283 -1.653418,0.8267 -7.472231,-1.7158 -8.586297,-2.2729 -1.861227,-0.9306 -4.252443,1.0509 -6.81853,-1.5152 -1.42461,-1.4246 -0.28298,-2.3732 0,-3.7881 z"
           id="path7820"
           inkscape:connector-curvature="0" />
      </g>
      <g
         transform="translate(-180,-100)"
         id="g7854">
        <path
           style="fill:#a0c3ef;fill-opacity:1;stroke:none"
           d="m 23.205696,2036.6082 c 1.367988,-9.5174 1.834412,-25.1306 11.191436,-28.245 1.149995,-0.3827 3.476064,-0.3392 4.53553,0.395 0.618855,0.4288 1.880982,-0.071 2.499837,0.3583 3.318081,2.2993 4.861834,2.6172 7.104587,5.6104 3.589645,4.7907 0.8199,20.9799 -0.155499,27.7856"
           id="path7840"
           inkscape:connector-curvature="0"
           sodipodi:nodetypes="cssssc" />
        <path
           style="fill:#ffb8cb;fill-opacity:1;stroke:none"
           d="m 18.168563,2039.7131 c -4.400696,-6.0552 4.50264,-7.0083 8.574362,-6.4248 1.805989,0.2589 4.348833,4.5041 5.533843,4.1097 0.931335,-0.31 1.717926,-1.1231 3.000623,-1.3558 3.187643,-0.578 7.16728,1.2271 8.71279,3.2897 0.206658,0.2759 15.698521,0.2868 9.497745,4.9329 -0.807866,0.6054 -1.499627,2.8797 -3.573053,3.5698 -1.976147,0.6577 -7.178017,-1.0631 -7.785318,-0.8607 -1.48253,0.4935 -3.734407,2.5961 -6.072086,1.4259 -1.023193,-0.5123 -7.514669,-3.8833 -7.855356,-3.9322 -0.605682,-0.087 -2.032316,0.4383 -2.643142,0.6416 -0.538309,0.1792 -1.682354,-0.2411 -2.249854,-0.3224 -3.724794,-0.5339 -4.782512,-1.5974 -5.140554,-5.0737 z"
           id="path7836"
           inkscape:connector-curvature="0"
           sodipodi:nodetypes="csssssssssssc" />
        <path
           style="fill:#e9a9ba;fill-opacity:1;stroke:none"
           d="m 17.062781,2036.7482 c -1.962348,5.3811 7.257819,10.1815 9.210319,8.7185 0.157219,-0.1178 1.11588,-0.8756 1.607383,-0.535 0.587087,0.4069 0.697838,1.308 1.284924,1.715 1.604439,1.1117 9.009622,2.7147 10.927638,2.0763 0.606738,-0.2019 2.193262,-1.2164 2.464818,-1.1774 0.786114,0.1126 1.167999,1.0841 1.820729,1.5365 2.070263,1.4346 5.261446,-0.1489 6.25041,-0.89 0.440245,-0.3299 1.323609,-1.8843 1.286558,-1.8566 -2.703022,2.0254 -8.971308,-2.0511 -10.141849,-2.2189 -0.309081,-0.044 -0.622662,0.9214 -1.179077,1.1066 -0.834498,0.2778 -1.773476,0.1142 -2.607319,0.3917 -3.195984,1.0637 -7.916594,-2.0509 -9.962709,-3.4688 -2.23366,-1.5479 -6.748787,2.293 -10.961825,-5.3979 z"
           id="path7838"
           inkscape:connector-curvature="0"
           sodipodi:nodetypes="cssssssscssssc" />
        <path
           style="fill:#f2f2f2;fill-opacity:1;stroke:none"
           d="m 48.138841,2013.9455 c 0.905852,1.0433 -9.251173,11.279 -8.576787,11.7817 2.926032,2.1814 9.332465,2.6132 10.570158,2.7906 0,0 0.768731,-4.4336 0.443342,-8.5229 -0.173395,-2.1793 -2.436713,-6.0494 -2.436713,-6.0494 z"
           id="path7842"
           inkscape:connector-curvature="0"
           sodipodi:nodetypes="cscsc" />
        <path
           style="fill:#535353;fill-opacity:1;stroke:none"
           d="m 50.547385,2024.7942 c -4.420284,1.7246 -3.839592,-6.2068 0.338035,-3.3118"
           id="path7844"
           inkscape:connector-curvature="0"
           sodipodi:nodetypes="cc" />
        <path
           style="fill:#8aacd7;fill-opacity:1;stroke:none"
           d="m 45.279916,2017.8727 c 0.0043,0.1064 5.419796,0.5186 5.408872,0.5948 -0.0014,0.01 -0.948006,-2.9436 -2.445882,-4.9427"
           id="path7846"
           inkscape:connector-curvature="0"
           sodipodi:nodetypes="csc" />
        <path
           style="opacity:0.5;fill:#000000;fill-opacity:1;stroke:none"
           d="m 24.243661,95.454314 c -2.590576,0.304578 -8.704655,-4.427328 -6.565991,-6.565992 1.974717,-1.974717 26.732393,0.973503 28.789347,3.030458 1.661663,1.661662 -7.220338,2.020305 -8.586297,2.020305 -5.909913,0 -3.67344,7.493395 -13.637059,1.515229 z"
           id="path7852"
           inkscape:connector-curvature="0"
           transform="translate(0,2004.7244)" />
      </g>
      <g
         transform="translate(-120,-100)"
         id="g7889">
        <path
           style="fill:#a0c3ef;fill-opacity:1;stroke:none"
           d="m 21.413135,2036.7731 c -0.939116,-4.3879 0.447522,-9.1904 0.90757,-13.6162 1.731182,-16.6544 16.900716,-17.4307 25.582177,-6.735 2.573685,3.1708 -0.941839,20.6065 -2.982822,23.8103 -1.892616,2.9709 -10.856707,1.7877 -13.469451,0.1233"
           id="path7877"
           inkscape:connector-curvature="0" />
        <path
           style="fill:#ffb8cb;fill-opacity:1;stroke:none"
           d="m 15.490463,2041.2354 c -0.308804,-0.286 -0.405014,-1.774 -0.670267,-2.1008 -1.717227,-2.1157 3.5698,-3.8998 4.488936,-4.1036 1.227495,-0.2721 2.48568,2.1223 3.412146,1.3703 0.896184,-0.7274 4.160395,-1.0963 5.630505,-0.4303 1.362999,0.6174 2.59514,1.5392 4.139591,1.6998 0.769375,0.08 2.518195,2.0958 2.580262,2.0455 0.78544,-0.6376 0.512325,-2.0031 2.045503,-2.5803 2.08978,-0.7868 8.440331,0.4813 9.46669,1.7457 0.690579,0.8508 5.822012,4.9341 4.171981,6.2734 -0.702187,0.5699 -1.993173,0.6978 -2.668508,1.246 -0.350234,0.2843 0.08739,1.999 -0.512285,2.4857 -0.526403,0.4273 -2.596794,-0.016 -3.291511,-0.088 -2.466904,-0.2564 -6.348137,-1.6338 -8.331402,-2.8972 -0.914644,-0.5827 -6.290563,0.482 -8.090132,-0.3332 -2.903777,-1.3153 -4.419107,-2.922 -7.431102,-1.788 -2.034338,0.7659 -6.497622,-0.1004 -4.940407,-2.5448 z"
           id="path7867"
           inkscape:connector-curvature="0"
           sodipodi:nodetypes="csssssssssssssssc" />
        <path
           style="fill:#e9a9ba;fill-opacity:1;stroke:none"
           d="m 14.872417,2038.6322 c -0.636808,2.8163 2.104396,9.3446 5.245132,8.1622 0.340914,-0.1284 3.177608,-1.7009 3.474282,-1.6701 0.675039,0.07 0.249577,1.4981 0.821969,1.8628 2.166344,1.3801 6.651191,-0.5836 8.566391,0.6365 1.404314,0.8947 6.54298,2.6774 6.573109,2.7145 0.729413,0.8986 4.036928,-0.776 4.85084,-0.2575 0.55934,0.3563 2.219007,1.4575 3.187072,1.093 1.792799,-0.675 3.313968,-2.5704 3.536417,-4.7104 0.0955,-0.9187 0.37992,-1.5551 0.20888,-2.0095 -0.10694,-0.284 -0.725926,-0.8371 -0.424039,-0.8057 0.444153,0.046 -1.845598,2.3843 -2.296688,2.5541 -1.173755,0.4419 -5.477489,-0.8438 -6.054544,-0.3754 -0.700733,0.5687 -1.009949,1.4184 -2.417324,1.2721 -1.926929,-0.2003 -4.990163,-1.0476 -6.096848,-2.4111 -0.531274,-0.6545 -4.506327,-0.8492 -5.361307,-0.9381 -2.411078,-0.2506 -5.411318,0.417 -6.617231,-1.0687 -0.07969,-0.098 -4.181104,0.015 -5.023694,-0.5222 -0.611888,-0.3898 -1.766108,-3.0259 -2.172417,-3.5265 z"
           id="path7869"
           inkscape:connector-curvature="0"
           sodipodi:nodetypes="csssssssssssssssssc" />
        <path
           style="fill:#f2f2f2;fill-opacity:1;stroke:none"
           d="m 48.10449,2029.1378 c -2.040154,-0.3741 -4.56013,-0.093 -6.227399,-1.1552 -1.725339,-1.0991 -4.77124,-0.2111 -5.923994,-1.6313 -0.559234,-0.689 4.713655,-4.631 5.498632,-5.2681 1.679274,-1.3631 3.235857,-6.7729 3.996483,-6.6938 3.741563,0.3889 6.552897,10.7962 2.656278,14.7484 z"
           id="path7879"
           inkscape:connector-curvature="0"
           sodipodi:nodetypes="cssssc" />
        <path
           style="fill:#8aacd7;fill-opacity:1;stroke:none"
           d="m 49.114687,2018.1981 c -0.02923,-0.2082 -5.792903,-0.4499 -5.777249,-0.6005 0.01003,-0.096 1.650643,-4.2418 2.505565,-4.5636 0.240263,-0.091 3.822849,3.3885 3.271684,5.1641 z"
           id="path7881"
           inkscape:connector-curvature="0" />
        <path
           style="fill:#4c4c4c;fill-opacity:1;stroke:none"
           d="m 49.579209,2024.7209 c -1.639894,0.3186 -3.043731,-0.3497 -3.689442,-1.1452 -3.003003,-3.6998 6.643153,-4.4723 3.689442,1.1452 z"
           id="path7883"
           inkscape:connector-curvature="0" />
        <path
           style="opacity:0.5;fill:#000000;fill-opacity:1;stroke:none"
           d="m 24.748737,94.696699 c -1.802228,-0.464733 -9.514594,-2.102159 -6.818529,-4.798224 0.80016,-0.80016 2.994097,0.0963 4.04061,-0.252539 5.302744,-1.767581 19.422883,-2.31795 21.970818,2.77792 0.48735,0.9747 -6.447104,1.767767 -7.323606,1.767767 -4.868678,0 -7.486291,4.888078 -11.869293,0.505076 z"
           id="path7887"
           inkscape:connector-curvature="0"
           transform="translate(0,2004.7244)" />
      </g>
      <g
         transform="translate(-60,-100)"
         id="g7920">
        <path
           style="fill:#a0c3ef;fill-opacity:1;stroke:none"
           d="m 20.960665,33.077394 c 0.495356,-4.762226 -1.263597,-9.846268 0.252538,-14.394674 1.467532,-4.402593 0.909896,-7.980963 4.040611,-11.111678 2.121721,-2.1217218 5.324825,-2.8692738 8.08122,-3.788072 2.690882,-0.8969606 13.015464,3.3024955 14.142136,5.555839 1.428929,2.857859 2.335558,12.691299 1.26269,15.909903 -1.082283,3.246849 0.413813,8.172484 -2.020305,10.606601 -0.404424,0.404425 -2.908674,-0.06538 -3.282996,-0.252538 -1.505454,-0.752727 -19.441503,-2.525381 -22.475894,-2.525381 z"
           id="path7906"
           inkscape:connector-curvature="0"
           transform="translate(0,2004.7244)" />
        <path
           style="fill:#ffb8cb;fill-opacity:1;stroke:none"
           d="m 20.708127,31.057089 c -3.69105,-0.891258 -7.638985,0.56909 -6.060915,5.303301 0.369552,1.108655 2.172651,2.425189 2.777919,3.030457 0.105387,0.105386 1.515229,0.300512 1.515229,0.505076 0,0.445169 -2.386623,1.540207 -1.515229,3.282996 1.795183,3.590366 9.686634,-2.101482 9.848988,-2.020305 0.911753,0.455877 0.895013,1.140132 2.020305,1.515229 0.917271,0.305757 4.323257,-0.727505 4.798224,-0.252538 2.754202,2.754201 6.047997,0.246079 9.091373,1.767767 1.070854,0.535426 2.111827,1.124839 3.282996,1.515229 1.118586,0.372862 3.472268,0.126531 4.04061,-1.010153 1.122701,-2.245402 2.215064,-6.089805 -0.757614,-7.576144 -0.310438,-0.155219 -0.76473,0.497961 -1.010153,0.252538 -0.0067,-0.0067 0.878639,-2.404357 0.252539,-3.030458 -4.216376,-4.216375 -7.866474,-1.155317 -8.586297,-1.515228 -1.493353,-0.746677 -3.280934,-2.189352 -5.303301,-1.515229 -1.531499,0.5105 -2.521119,1.891905 -3.788072,2.525381 -0.426189,0.213095 -5.788143,-5.668995 -10.606602,-2.777919 z"
           id="path7898"
           inkscape:connector-curvature="0"
           transform="translate(0,2004.7244)" />
        <path
           style="fill:#f2f2f2;fill-opacity:1;stroke:none"
           d="M 46.719555,8.3286564 C 46.961884,10.448 36.870568,21.739422 36.870568,21.965716 c 0,0.362795 6.290248,1.26269 6.81853,1.26269 1.592715,0 5.070294,1.861802 5.303301,1.010153 1.41241,-5.16241 0.230709,-12.396197 0,-12.626907 C 48.259286,10.87854 47.816943,9.4260444 46.719555,8.3286564 z"
           id="path7908"
           inkscape:connector-curvature="0"
           transform="translate(0,2004.7244)"
           sodipodi:nodetypes="cssssc" />
        <path
           style="fill:#8aacd7;fill-opacity:1;stroke:none"
           d="m 46.467017,8.0761183 c -1.16456,3.3699567 -1.559097,3.9798747 -2.882523,5.3033007 0,0 4.725847,0.682057 5.407905,0 1.074243,-1.074243 -1.834811,-4.6127297 -2.525382,-5.3033007 z"
           id="path7910"
           inkscape:connector-curvature="0"
           transform="translate(0,2004.7244)"
           sodipodi:nodetypes="ccsc" />
        <path
           style="fill:#4c4c4c;fill-opacity:1;stroke:none"
           d="m 48.73986,19.945411 c -7.941942,-0.001 0.505077,-7.609859 0.505077,-3.282996 0,1.553319 0.557267,1.512423 -0.505077,3.282996 z"
           id="path7912"
           inkscape:connector-curvature="0"
           transform="translate(0,2004.7244)" />
        <path
           style="opacity:0.5;fill:#000000;fill-opacity:1;stroke:none"
           d="m 22.475894,94.444161 c -4.326921,0.30702 -5.135032,-3.240861 -1.515229,-5.050763 3.199467,-1.599733 9.553972,1.157661 11.869293,0 0.92313,-0.461565 3.310822,-1.375046 4.545686,-0.757614 2.051304,1.025652 5.283396,1.475419 6.313454,3.535534 0.612706,1.225413 -4.965093,1.767767 -5.808378,1.767767 -3.124915,0 -3.343118,1.54529 -5.808377,2.777919 -3.596254,1.798127 -6.876403,-1.184825 -9.596449,-2.272843 z"
           id="path7914"
           inkscape:connector-curvature="0"
           transform="translate(0,2004.7244)" />
        <path
           style="fill:#e9a9ba;fill-opacity:1;stroke:none"
           d="m 14.821429,36.964286 c -0.101436,1.889598 0.738096,3.059525 1.785714,4.107142 0.595463,0.595463 -0.515241,2.599522 1.071429,3.392857 2.185189,1.092595 7.262458,-1.458056 7.678571,-1.249999 C 26.929061,44.000245 29.122197,45 31.071429,45 c 0.874522,0 3.195621,-0.723618 3.571428,-0.535714 1.597872,0.798935 3.888778,1.607142 6.071429,1.607142 0.245839,0 1.01382,-0.414751 1.25,-0.178571 1.266659,1.26666 5.973725,1.834566 7.857143,0.892857 1.856884,-0.928442 2.286818,-4.176363 1.071428,-6.607143 C 50.782874,39.958605 50.577804,43.529339 50,44.107143 c -1.492182,1.492182 -2.713724,1.589566 -4.821428,0.535714 -0.437738,-0.218869 -1.557108,-1.607143 -1.785715,-1.607143 -1.136204,0 -3.794338,1.384233 -5,0.178572 -0.278566,-0.278567 -0.931413,-1.179993 -1.428571,-1.428572 -0.06221,-0.0311 -3.248546,-0.195701 -4.642857,-0.892857 -0.30117,-0.150585 -0.476191,0.47619 -0.714286,0.714286 -0.490822,0.490822 -3.442242,-0.203264 -3.75,-0.357143 -0.97623,-0.488115 -1.548393,-2.201607 -2.5,-1.25 -0.472715,0.472715 -5.27335,2.405222 -5.714286,1.964286 -0.61881,-0.618811 0.2867,-1.033743 -0.178571,-1.964286 -0.101254,-0.202508 -1.185852,-1.964286 -1.25,-1.964286 -2.552275,0 -1.127652,0.740736 -3.392857,-1.071428 z"
           id="path7918"
           inkscape:connector-curvature="0"
           transform="translate(0,2004.7244)"
           sodipodi:nodetypes="cssssssssssssscsssssssc" />
      </g>
    </g>
  </g>
</svg>
