<?xml version="1.0" encoding="UTF-8" standalone="no"?>
<!-- Created with Inkscape (http://www.inkscape.org/) -->

<svg
   xmlns:dc="http://purl.org/dc/elements/1.1/"
   xmlns:cc="http://creativecommons.org/ns#"
   xmlns:rdf="http://www.w3.org/1999/02/22-rdf-syntax-ns#"
   xmlns:svg="http://www.w3.org/2000/svg"
   xmlns="http://www.w3.org/2000/svg"
   xmlns:xlink="http://www.w3.org/1999/xlink"
   xmlns:sodipodi="http://sodipodi.sourceforge.net/DTD/sodipodi-0.dtd"
   xmlns:inkscape="http://www.inkscape.org/namespaces/inkscape"
   width="800"
   height="600"
   id="svg2"
   version="1.1"
   inkscape:version="0.48.4 r9939"
   sodipodi:docname="ug_1.svg"
   inkscape:export-filename="C:\Users\matthew\Desktop\ug_2.png"
   inkscape:export-xdpi="90"
   inkscape:export-ydpi="90">
  <defs
     id="defs4">
    <linearGradient
       inkscape:collect="always"
       id="linearGradient4228">
      <stop
         style="stop-color:#7ab86a;stop-opacity:1;"
         offset="0"
         id="stop4230" />
      <stop
         style="stop-color:#7ab86a;stop-opacity:0;"
         offset="1"
         id="stop4232" />
    </linearGradient>
    <linearGradient
       inkscape:collect="always"
       id="linearGradient4027">
      <stop
         style="stop-color:#7ab76b;stop-opacity:1;"
         offset="0"
         id="stop4029" />
      <stop
         style="stop-color:#7ab76b;stop-opacity:0;"
         offset="1"
         id="stop4031" />
    </linearGradient>
    <linearGradient
       id="linearGradient3923">
      <stop
         style="stop-color:#9bb7ec;stop-opacity:1;"
         offset="0"
         id="stop3925" />
      <stop
         style="stop-color:#88a0cd;stop-opacity:1;"
         offset="1"
         id="stop3927" />
    </linearGradient>
    <linearGradient
       id="linearGradient3781">
      <stop
         style="stop-color:#dbcdff;stop-opacity:1;"
         offset="0"
         id="stop3783" />
      <stop
         style="stop-color:#ffd2f0;stop-opacity:1;"
         offset="1"
         id="stop3785" />
    </linearGradient>
    <linearGradient
       inkscape:collect="always"
       xlink:href="#linearGradient4228"
       id="linearGradient4248"
       gradientUnits="userSpaceOnUse"
       x1="1069.0559"
       y1="320.04987"
       x2="1063.7367"
       y2="292.19275" />
    <linearGradient
       inkscape:collect="always"
       xlink:href="#linearGradient4027"
       id="linearGradient4250"
       gradientUnits="userSpaceOnUse"
       gradientTransform="translate(540,452.36218)"
       x1="427.49631"
       y1="315.96353"
       x2="425.9451"
       y2="294.53494" />
  </defs>
  <sodipodi:namedview
     id="base"
     pagecolor="#ffffff"
     bordercolor="#666666"
     borderopacity="1.0"
     inkscape:pageopacity="0.0"
     inkscape:pageshadow="2"
     inkscape:zoom="0.49497475"
     inkscape:cx="570.01443"
     inkscape:cy="276.62728"
     inkscape:document-units="px"
     inkscape:current-layer="layer1"
     showgrid="false"
     inkscape:window-width="1366"
     inkscape:window-height="706"
     inkscape:window-x="-8"
     inkscape:window-y="-8"
     inkscape:window-maximized="1" />
  <metadata
     id="metadata7">
    <rdf:RDF>
      <cc:Work
         rdf:about="">
        <dc:format>image/svg+xml</dc:format>
        <dc:type
           rdf:resource="http://purl.org/dc/dcmitype/StillImage" />
        <dc:title></dc:title>
      </cc:Work>
    </rdf:RDF>
  </metadata>
  <g
     inkscape:label="Layer 1"
     inkscape:groupmode="layer"
     id="layer1"
     transform="translate(0,-452.36218)">
    <rect
       style="fill:#ccc1b6;fill-opacity:1;stroke:none"
       id="rect4013"
       width="854.58905"
       height="234.35539"
       x="-16.162441"
       y="428.08792" />
    <path
       style="fill:#ddd5ca;fill-opacity:1;stroke:none"
       d="m -10.092526,1089.995 c -3.72779,-155.48952 -46.005552,-319.5344 -14.14184,-461.25366 5.945206,-26.44232 0.868119,-109.11258 12.121576,-125.79647 2.3056421,-3.41825 45.019622,23.96122 56.567355,23.96122 95.658325,0 286.259035,-51.3759 379.809385,17.97092 20.19726,14.97181 70.53032,-20.05607 98.99287,-5.99031 33.71363,16.66082 116.30708,-1.92456 151.5197,-14.97575 17.34853,-6.43005 54.05762,54.63842 60.60788,44.92729 21.86544,-32.41674 -0.60844,-29.95154 28.28367,-29.95154 7.70601,0 72.72946,-4.51408 72.72946,-2.99513 0,49.49492 31.67856,83.15412 36.36473,131.78675 2.71428,28.16861 -20.6673,411.02498 -32.3242,428.30688 -23.72296,35.1708 -229.20116,29.3306 -268.69494,20.9662 -76.35984,-16.1725 -188.59262,-33.7701 -264.65441,-14.9758 -46.5384,11.4992 -110.54797,24.937 -157.58048,14.9758 -42.19929,-8.9376 -121.376001,-49.6246 -159.600756,-26.9564 z"
       id="path4011"
       inkscape:connector-curvature="0" />
    <path
       style="fill:#ac9f91;stroke:none;stroke-width:1px;stroke-linecap:butt;stroke-linejoin:miter;stroke-opacity:1;fill-opacity:1"
       d="M 338.57143,351.42857 C 357.1003,346.1979 375.54945,350 394.28571,350 c 11.42858,0 22.85715,0 34.28572,0 29.90696,0 65.8896,4.63634 52.85714,-21.42857 -2.11909,-4.23819 -2.81326,-15.69235 -8.57143,-18.57143 -24.14184,-12.07092 -89.97879,-1.42857 -117.14285,-1.42857 -3.71977,0 -26.72979,-0.41307 -27.14286,0 -2.50869,2.50869 0.0607,15.59279 -1.42857,18.57143 -1.37803,2.75604 -12.45496,21.83076 -10,24.28571 0.48949,0.48949 16.57378,0 21.42857,0 z"
       id="path3979"
       inkscape:connector-curvature="0"
       transform="translate(0,452.36218)" />
    <path
       style="fill:#8f7c66;stroke:none;stroke-width:1px;stroke-linecap:butt;stroke-linejoin:miter;stroke-opacity:1;fill-opacity:1"
       d="m 317.14286,362.85714 c 23.7165,2.41296 50.85938,-3.04687 72.85714,4.28572 6.19893,2.06631 121.23029,2.65886 94.28571,-24.28572 -7.07908,-7.07908 -20.50241,1.73729 -30,-1.42857 C 448.61348,339.53783 326.03131,333.96869 320,340 c -4.91814,4.91814 -4.13547,15.18715 -2.85714,22.85714 z"
       id="path3981"
       inkscape:connector-curvature="0"
       transform="translate(0,452.36218)" />
    <path
       style="fill:#8f7e94;fill-opacity:1;stroke:none"
       d="m 275.24728,900.93361 c 11.32933,-35.82285 40.48011,-60.05916 56.46573,-82.93678 20.73905,-29.68042 -10.40158,-265.4022 -10.40158,-312.60789 0,-23.72782 12.8296,-111.36071 2.97188,-125.46846 -10.37206,-14.84385 -29.97254,3.37143 -43.09227,12.7595 -7.95863,5.69494 -2.97188,72.67717 -2.97188,85.06336 0,92.27108 -10.40158,187.04628 -10.40158,278.58255 0,39.77269 16.32584,112.77874 7.4297,144.60772 z"
       id="path3969"
       inkscape:connector-curvature="0" />
    <path
       style="fill:#8f7e94;fill-opacity:1;stroke:none"
       d="m 528.4515,875.21933 c -17.0027,-12.34346 -42.94491,-30.24321 -50.52197,-52.59056 -5.48748,-16.18443 -2.20113,-428.4348 10.40158,-447.01966 6.36748,-9.38993 44.5782,42.95289 44.5782,56.9731 0,33.20103 -1.5698,431.98995 -4.45781,442.63712 z"
       id="path3971"
       inkscape:connector-curvature="0" />
    <path
       style="fill:#a691ac;fill-opacity:1;stroke:none"
       d="m 284.16293,880.25113 c -30.23049,3.38252 -198.305549,34.0436 -212.489457,14.4031 -2.935517,-4.06482 14.470025,-217.224 10.401581,-251.02554 -7.039867,-58.48875 -32.115101,-178.70096 -2.97188,-232.50724 52.136276,-96.25769 155.597356,-105.5273 211.003506,-28.80621 11.17379,15.47237 -13.98564,431.12216 -5.94375,497.93589 z"
       id="path3975"
       inkscape:connector-curvature="0" />
    <path
       style="fill:#a691ac;fill-opacity:1;stroke:none"
       d="m 515.9696,859.78773 c 35.09053,43.38101 98.73674,32.1378 147.10808,32.1378 13.37346,0 53.49385,0 40.12039,0 -1.17966,0 1.60901,-19.63756 4.45781,-27.85274 5.16184,-14.8853 0,-61.15171 0,-77.13074 0,-65.13077 0.14265,-151.00477 8.91565,-214.25199 4.34812,-31.34694 21.57258,-132.75999 11.88752,-160.689 -6.85626,-19.77156 -78.39045,0.10513 -93.61424,-4.28504 -32.89803,-9.48689 -81.19571,-0.68845 -109.95957,-21.42521 -1.67935,-1.21069 -11.34337,-5.06962 -13.37346,-2.14251 -2.4134,3.47978 0,43.05621 0,49.27795 0,75.46514 7.20096,162.3381 -2.97188,235.67722 -8.32809,60.03981 7.4297,128.47786 7.4297,190.68426 z"
       id="path3977"
       inkscape:connector-curvature="0" />
    <path
       style="fill:#3d3d3d;stroke:none;stroke-width:1px;stroke-linecap:butt;stroke-linejoin:miter;stroke-opacity:1;fill-opacity:1"
       d="M 584.28571,417.14286 C 583.90823,396.33045 590,376.3204 590,355.71429 c 0,-19.64148 4.28571,-39.13512 4.28571,-55.71429 0,-10.60856 -8.41702,-55.86869 -2.85714,-61.42857 8.4699,-8.4699 18.12012,-7.14286 32.85714,-7.14286 56.63042,0 44.69004,98.78704 31.42858,138.57143 -5.44781,16.34341 -0.0425,35.75681 -11.42858,47.14286 -11.45037,11.45037 -46.3701,0 -60,0 z"
       id="path3985"
       inkscape:connector-curvature="0"
       transform="translate(0,452.36218)" />
    <path
       style="fill:#3d3d3d;fill-opacity:1;stroke:none"
       d="m 144.28572,892.36218 c -12.25508,-29.63795 -1.42858,-62.76416 -1.42858,-92.85714 0,-12.01757 30.24335,-145.95763 31.42858,-147.14286 7.79489,-7.79489 31.33156,-8.66844 40,0 7.15094,7.15094 25.32319,4.93211 31.42857,17.14286 7.08067,14.16135 -37.14286,128.65273 -37.14286,174.28571 0,7.23001 0.80346,40.62511 -4.28571,45.71429 -8.2376,8.23759 -46.65248,2.85714 -60,2.85714 z"
       id="path3987"
       inkscape:connector-curvature="0" />
    <path
       style="fill:#8f7c66;fill-opacity:1;stroke:none"
       d="m 10.143578,941.51827 c 0.872616,5.29929 -0.6318245,17.4197 3.022979,21.40015 0.01943,0.0212 10.189804,-3.29234 12.091914,-3.29234 31.617883,0 59.745525,-4.24501 92.200839,1.64618 176.56311,32.04918 379.64518,20.88914 556.22806,-6.58467 39.83365,-6.19755 143.59148,19.33634 143.59148,-19.75398"
       id="path3963"
       inkscape:connector-curvature="0" />
    <path
       style="fill:#ac9f91;fill-opacity:1;stroke:none"
       d="m 11.655067,950.93361 c 114.544553,-11.96279 231.629973,-8.57143 347.642533,-8.57143 45.80864,0 91.80127,-2.85714 137.54551,-2.85714 37.17256,0 74.75227,-3.89587 111.85022,0 16.69215,1.75294 211.18969,5.07737 211.6085,4.28572 1.82472,-3.44924 -46.7459,-39.92184 -52.90213,-44.28572 -10.26259,-7.2747 -19.46132,-24.91114 -30.22979,-30 -25.65155,-12.12218 -163.79505,-2.45635 -194.98211,0 -130.06641,10.24427 -267.49408,17.14286 -397.52167,17.14286 -36.88822,0 -141.0044489,18.95642 -133.011063,64.28571 z"
       id="path3961"
       inkscape:connector-curvature="0" />
    <path
       style="fill:none;stroke:#8b806d;stroke-width:5.19999981;stroke-linecap:butt;stroke-linejoin:miter;stroke-miterlimit:4;stroke-opacity:1;stroke-dasharray:none"
       d="m 145.71429,895.21932 c -10.9325,8.37465 -24.07744,17.95395 -31.42858,27.14286"
       id="path3989"
       inkscape:connector-curvature="0" />
    <path
       style="fill:none;stroke:#8b806d;stroke-width:5.19999981;stroke-linecap:butt;stroke-linejoin:miter;stroke-miterlimit:4;stroke-opacity:1;stroke-dasharray:none"
       d="m 190,900.93361 c -4.41285,9.50609 -18.83985,20.26842 -22.85714,24.28571"
       id="path3991"
       inkscape:connector-curvature="0" />
    <path
       style="fill:none;stroke:#8b806d;stroke-width:5.19999981;stroke-linecap:butt;stroke-linejoin:miter;stroke-miterlimit:4;stroke-opacity:1;stroke-dasharray:none"
       d="m 347.14286,889.50504 c -1.07377,10.9692 -1.42857,25.97151 -1.42857,34.28571"
       id="path3993"
       inkscape:connector-curvature="0" />
    <path
       style="fill:none;stroke:#8b806d;stroke-width:5.20000000000000020;stroke-linecap:butt;stroke-linejoin:miter;stroke-opacity:1;stroke-miterlimit:4;stroke-dasharray:none"
       d="m 411.42857,438.57143 c 4.6064,15.55119 2.45913,34.53873 12.85714,42.85714"
       id="path3995"
       inkscape:connector-curvature="0"
       transform="translate(0,452.36218)" />
    <path
       style="fill:none;stroke:#8b806d;stroke-width:5.20000000000000020;stroke-linecap:butt;stroke-linejoin:miter;stroke-opacity:1;stroke-miterlimit:4;stroke-dasharray:none"
       d="m 498.57143,430 c 17.14045,14.87428 26.26099,35.24246 37.14286,54.28571"
       id="path3997"
       inkscape:connector-curvature="0"
       transform="translate(0,452.36218)" />
    <path
       style="fill:none;stroke:#8b806d;stroke-width:5.20000000000000020;stroke-linecap:butt;stroke-linejoin:miter;stroke-opacity:1;stroke-miterlimit:4;stroke-dasharray:none"
       d="m 600,424.28571 c 22.06425,18.8108 41.86882,39.20934 64.28571,57.14286"
       id="path3999"
       inkscape:connector-curvature="0"
       transform="translate(0,452.36218)" />
    <path
       style="fill:none;stroke:#8b806d;stroke-width:5.20000000000000020;stroke-linecap:butt;stroke-linejoin:miter;stroke-opacity:1;stroke-miterlimit:4;stroke-dasharray:none"
       d="M 668.57143,424.28571 C 690.77496,433.2995 702.21662,455.77329 720,470"
       id="path4001"
       inkscape:connector-curvature="0"
       transform="translate(0,452.36218)" />
    <path
       style="fill:none;stroke:#8b806d;stroke-width:5.20000000000000020;stroke-linecap:butt;stroke-linejoin:miter;stroke-opacity:1;stroke-miterlimit:4;stroke-dasharray:none"
       d="M 361.42857,310 C 354.56459,317.93306 348.51176,324.31555 340,328.57143"
       id="path4003"
       inkscape:connector-curvature="0"
       transform="translate(0,452.36218)" />
    <path
       style="fill:none;stroke:#8b806d;stroke-width:5.20000000000000020;stroke-linecap:butt;stroke-linejoin:miter;stroke-opacity:1;stroke-miterlimit:4;stroke-dasharray:none"
       d="m 390,310 c 0.44922,7.28381 -0.46875,13.28122 -1.42857,20"
       id="path4005"
       inkscape:connector-curvature="0"
       transform="translate(0,452.36218)" />
    <path
       style="fill:none;stroke:#8b806d;stroke-width:5.19999981;stroke-linecap:butt;stroke-linejoin:miter;stroke-miterlimit:4;stroke-opacity:1;stroke-dasharray:none"
       d="m 422.85714,762.36218 c 0.61975,10.65816 4.17154,22.66684 8.57143,30"
       id="path4007"
       inkscape:connector-curvature="0" />
    <path
       style="fill:none;stroke:#8b806d;stroke-width:5.20000000000000020;stroke-linecap:butt;stroke-linejoin:miter;stroke-opacity:1;stroke-miterlimit:4;stroke-dasharray:none"
       d="m 450,312.85714 c 12.6432,8.97792 20.41467,23.27182 31.42857,34.28572"
       id="path4009"
       inkscape:connector-curvature="0"
       transform="translate(0,452.36218)" />
    <g
       id="g4264"
       transform="translate(600,0)">
      <path
         transform="translate(0,452.36218)"
         inkscape:connector-curvature="0"
         id="path3983"
         d="m 397.14286,-15.714286 c -11.45759,45.147776 7.14285,85.198319 7.14285,129.999996 0,28.34188 -5.71428,60.50544 -5.71428,91.42858 0,31.64419 -7.14286,61.92853 -7.14286,91.42857 0,23.71409 4.28572,41.2533 4.28572,64.28571 0,12.92694 5.59505,33.0956 0,44.28572 -0.87806,1.7561 -1.42858,7.67766 -1.42858,5.71428 0,-11.51457 20.83759,0 18.57143,0 -5.40781,0 -7.14285,-66.31685 -7.14285,-75.71428 0,-27.77428 -3.8191,-53.79038 8.57142,-78.57143 2.84673,-5.69345 -7.14285,-174.623361 -7.14285,-192.857146 0,-14.451103 4.32949,-74.2682013 -10,-80 z"
         style="fill:#e09307;fill-opacity:1;stroke:none" />
      <path
         id="path4101"
         transform="translate(0,452.36218)"
         d="m 411.21875,434.65625 c -30.45952,0.42174 -65.26559,5.84381 -58.375,19.625 5.10632,10.21264 26.259,16.94328 38.59375,18.5625 8.25749,1.37627 15.92594,1.4375 24.28125,1.4375 24.69553,0 76.07818,-15.53904 35.71875,-35.71875 -5.22088,-2.61044 -21.94304,-4.15929 -40.21875,-3.90625 z m -9.59375,11.3125 c 16.45652,-0.47502 37.87442,27.74977 1.78125,13.3125 -2.92083,1.03856 -15.56421,0.19092 -12.375,-6.1875 2.51684,-5.03369 6.39895,-7.00392 10.59375,-7.125 z"
         style="opacity:0.40707966;fill:#ffffff;fill-opacity:1;stroke:none"
         inkscape:connector-curvature="0" />
    </g>
    <g
       id="g4152"
       inkscape:export-filename="C:\Users\matthew\Desktop\dude1.png"
       inkscape:export-xdpi="90"
       inkscape:export-ydpi="90">
      <path
         inkscape:connector-curvature="0"
         id="path4150"
         d="m 269.28571,915.21932 c 4.69201,-10.89545 6.35161,-23.26357 9.28572,-35 2.37654,-9.50615 18.85942,-35.13829 14.28571,-44.28571 -1.34005,-2.6801 -83.98453,-29.88807 -86.42857,-25 -10.27482,20.54965 -18.52358,48.42789 -25.71428,70 -0.4557,1.36708 -3.31522,6.68478 -2.14286,7.85714 9.3252,9.32521 76.64315,32.05702 90.71428,26.42857 z"
         style="fill:#ff909e;fill-opacity:1;stroke:none" />
      <path
         style="fill:#dd747e;fill-opacity:1;stroke:none"
         d="m 269.20565,913.97128 c 13.53941,-0.38199 41.29099,-15.27755 52.52794,-4.04061 3.17962,3.17962 -12.10196,3.52891 -13.63706,4.04061 -8.39977,2.79992 -19.26299,0.19172 -27.7792,3.03046 -3.31566,1.10522 -8.12805,-0.48166 -11.11168,1.01015 -1.53566,0.76784 -5.05076,2.72708 -5.05076,1.01015 0,-2.38095 3.36718,-3.36717 5.05076,-5.05076 z"
         id="path4112"
         inkscape:connector-curvature="0" />
      <path
         style="fill:#ff909e;fill-opacity:1;stroke:none"
         d="m 215.98809,894.50067 c 67.89283,34.41203 -10.25568,35.81305 -19.96669,45.52406 -6.39594,6.39594 -13.30159,31.69957 -7.18801,43.92673 5.34427,10.68853 3.45073,20.49404 16.77202,27.15474 3.15261,1.5763 29.03276,1.878 23.16136,-3.9934 -2.42695,-2.427 -9.20818,-1.2215 -11.98001,-3.9933 -17.85266,-17.85268 -17.57069,-25.79989 -17.57069,-47.92008 0,-6.43819 30.26714,-20.04892 37.53738,-12.77868 18.63137,18.63136 -31.24185,19.77907 -19.16802,43.92672 5.06683,10.13367 23.85104,34.79654 39.13471,27.15474 12.60876,-6.3044 -22.63979,-25.8345 -26.35603,-29.55074 -6.93897,-6.93898 17.98131,-21.97464 20.76536,-24.7587 5.29972,-5.29972 -0.22487,-18.94315 5.59067,-24.7587 4.67976,-4.67975 13.31635,-5.46017 19.9667,-8.78534 3.85897,-1.92949 80.9417,18.64561 70.28276,7.98667 4.68629,-6.97671 -81.11861,-17.40103 -130.98151,-39.13472 z"
         id="path4116"
         inkscape:connector-curvature="0"
         sodipodi:nodetypes="cssssssssssssscc" />
      <path
         style="fill:#8f7477;fill-opacity:1;stroke:none"
         d="m 175.25604,889.70866 c 26.60493,-8.39249 64.09584,-31.14804 91.04812,-31.14804 3.8903,0 0.16009,19.16803 -30.34938,19.16803 -20.84861,0 -39.47108,11.98001 -60.69874,11.98001 z"
         id="path4118"
         inkscape:connector-curvature="0" />
      <path
         inkscape:connector-curvature="0"
         id="path4144"
         d="m 220,855.93361 c -35.16418,-39.01685 70.34086,-24.81329 19.28571,0.71428 -5.71239,2.8562 -13.80691,2.573 -19.28571,-0.71428 z"
         style="fill:#f3f3f3;fill-opacity:1;stroke:none" />
      <path
         inkscape:connector-curvature="0"
         id="path4146"
         d="m 225.71429,848.07647 c 5.31006,-22.15104 26.42184,10.56873 0,0 z"
         style="fill:#343434;fill-opacity:1;stroke:none" />
    </g>
    <g
       id="g4172"
       transform="translate(200,0)"
       inkscape:export-filename="C:\Users\matthew\Desktop\dude2.png"
       inkscape:export-xdpi="90"
       inkscape:export-ydpi="90">
      <path
         transform="translate(0,452.36218)"
         inkscape:connector-curvature="0"
         id="path4148"
         d="m -332.14286,460 c -0.0513,-14.19592 12.77957,-24.76727 17.14286,-37.85714 1.25691,-3.77072 12.62737,-28.8012 9.28571,-32.14286 -5.68019,-5.6802 -80.18419,-36.95866 -82.14285,-35 -15.9312,15.9312 -23.06166,46.02105 -35.71429,65 -1.33177,1.99766 -5.51585,6.11116 -4.28571,8.57143 1.75931,3.51862 13.81096,5.15969 17.85714,7.85714 22.68305,15.12204 48.81331,35.18896 77.85714,23.57143 z"
         style="fill:#ff909e;fill-opacity:1;stroke:none" />
      <path
         transform="translate(0,452.36218)"
         inkscape:connector-curvature="0"
         id="path4138"
         d="m -427.14286,429.28571 c 19.8602,2.62189 73.78854,-32.64003 87.85715,-18.57142 16.2382,16.2382 -78.99848,20.04787 -87.85715,18.57142 z"
         style="fill:#8f7477;fill-opacity:1;stroke:none" />
      <path
         inkscape:connector-curvature="0"
         id="path4140"
         d="m -382.85714,856.64789 c -5.60866,-0.5155 -12.42652,-12.57347 -7.14286,-17.85714 24.9588,-24.9588 47.96612,17.85714 7.14286,17.85714 z"
         style="fill:#f3f3f3;fill-opacity:1;stroke:none" />
      <path
         transform="translate(0,452.36218)"
         inkscape:connector-curvature="0"
         id="path4142"
         d="m -381.42857,392.85714 c 0.80329,-25.93783 22.26816,17.81453 0,0 z"
         style="fill:#343434;fill-opacity:1;stroke:none" />
      <path
         inkscape:connector-curvature="0"
         id="path4170"
         d="m -340,912.36218 c 6.16783,-0.78966 11.83395,-2.5648 17.85714,-4.28571 5.45259,-1.55789 10.99481,-2.92728 16.42857,-4.28572 63.56252,-15.89063 -24.97087,31.85852 -34.28571,8.57143 z"
         style="fill:#dd747e;fill-opacity:1;stroke:none" />
      <path
         inkscape:connector-curvature="0"
         id="path4168"
         d="m -355.71429,907.36218 c -6.37158,40.30137 -80.10661,14.68017 -55.71428,87.85714 2.77303,8.31908 22.75795,22.54958 30.71428,18.57138 9.09637,-4.5481 -51.98137,-56.64746 4.28572,-70.71423 36.71879,-9.1797 -5.27183,43.2996 7.85714,56.42857 3.6208,3.62076 16.51644,19.91216 24.28572,12.14286 9.50104,-9.5011 -11.90259,-19.51946 -15,-25.71429 -3.3554,-6.71078 6.77559,-17.12262 9.28571,-22.14286 2.43002,-4.86004 0.30551,-23.87694 2.14286,-25.71428 16.21368,-16.21369 25.62855,-4.28572 47.85714,-4.28572 1.595,0 56.56511,5.85083 47.85714,-2.85714 -9.03721,-9.03721 -35.8912,-1.72564 -50,-6.42857 -18.949,-6.31634 -34.74815,-17.14286 -53.57143,-17.14286 z"
         style="fill:#ff909e;fill-opacity:1;stroke:none" />
    </g>
    <g
       id="g4236"
       transform="translate(10,0)">
      <path
         sodipodi:nodetypes="csscsssssc"
         inkscape:connector-curvature="0"
         id="path4017"
         d="m 971.29115,720.37777 c 3.66176,1.02555 3.70885,3.50896 3.70885,1.98441 0,-0.27764 34.1934,26.42857 33.5714,26.42857 -5.7944,0 -33.65664,-12.76543 -34.99997,-13.57143 -8.21835,22.78372 2.44783,43.16212 14.28571,55 7.92008,7.92008 -3.49833,41.50167 -6.42857,38.57143 -0.57684,-0.57684 -0.55092,-42.30622 -5,-37.85714 -2.02692,2.02692 -1.43939,51.40693 -7.85714,38.57143 -5.24541,-10.49082 6.07366,-27.1384 0.71428,-37.85715 -7.34979,-14.69958 -31.17936,-91.18103 2.00544,-71.27012 z"
         style="fill:#a5d699;fill-opacity:1;stroke:none" />
      <path
         inkscape:connector-curvature="0"
         id="path4019"
         d="m 1007.7006,748.81134 c -5.3484,-2.27583 -34.5977,-16.18086 -34.5977,-19.44544 0,-2.35852 0.64028,4.74464 0.25254,7.07107"
         style="fill:#7ab76b;fill-opacity:1;stroke:none" />
      <path
         inkscape:connector-curvature="0"
         id="path4021"
         d="m 962.4963,749.06388 c 0.47845,3.12871 3.56212,46.94551 10.6066,39.90102 3.76128,-3.76127 -3.61921,-18.93887 -5.05076,-23.23351 -1.6068,-4.82041 -0.31376,-12.30551 -1.51523,-15.9099"
         style="fill:url(#linearGradient4250);fill-opacity:1;stroke:none" />
      <path
         inkscape:connector-curvature="0"
         id="path4212"
         d="m 968.92857,728.07647 c -13.14317,-8.25395 13.00041,-4.89306 4.64286,-0.71429 -1.85237,0.92618 -1.89662,1.17199 -4.64286,0.71429 z"
         style="fill:#4c4c4c;fill-opacity:1;stroke:none" />
    </g>
    <g
       id="g4242"
       transform="translate(-630,0)">
      <path
         transform="translate(0,452.36218)"
         id="path4204"
         d="m 1063.0625,264.6875 c -17.6254,-0.54542 0.032,61.72111 5.1563,77.09375 1.5649,4.69483 -0.169,10.44923 1.0624,15.375 1.2328,4.93074 -4.9688,19.10932 0.375,21.78125 6.8169,3.40843 0.771,-43.53639 7.8438,-40 9.7226,4.86129 -2.2399,28.82272 4.6562,35.71875 6.6976,6.69768 5.1288,-33.2739 0.6876,-42.15625 -2.1535,-4.30713 -6.0484,-7.15908 -8.1876,-11.4375 -3.0554,-6.11098 -5.8901,-29.2823 -2.5,-36.0625 0.1417,-0.28323 0.3355,-0.72467 0.5,-1.0625 6.0965,2.4287 17.3889,3.70253 19.125,4.28125 4.8774,1.62577 11.0635,2.501 15,6.4375 0.1178,0.11773 2.1563,1.91973 2.1563,1.78125 0,-7.11985 -24.9549,-16.53196 -32.1875,-23.84375 0.012,-0.1514 0.031,-0.29873 0.031,-0.4375 -5.9873,-5.10681 -10.4547,-7.36775 -13.7187,-7.46875 z"
         style="fill:#a5d699;fill-opacity:1;stroke:none"
         inkscape:connector-curvature="0" />
      <path
         transform="translate(0,452.36218)"
         inkscape:connector-curvature="0"
         id="path4202"
         d="m 1067.5,295.35714 c -3.0148,8.49165 8.6674,41.20201 6.0714,42.5 -5.3096,2.65484 -21.5366,-51.77915 -6.0714,-42.5 z"
         style="fill:url(#linearGradient4248);fill-opacity:1;stroke:none" />
      <path
         transform="translate(0,452.36218)"
         inkscape:connector-curvature="0"
         id="path4214"
         d="m 1068.9286,275.35714 c -1.7339,0.31585 -3.1,0.22865 -3.9286,-1.42857 -0.2285,-0.45696 -0.1041,-2.26939 0.3571,-2.5 7.8198,-3.90988 11.9667,7.28667 3.5715,3.92857 z"
         style="fill:#4c4c4c;fill-opacity:1;stroke:none" />
      <path
         sodipodi:nodetypes="cssscc"
         transform="translate(0,452.36218)"
         inkscape:connector-curvature="0"
         id="path4225"
         d="m 1108.3929,296.25 c -3.3419,-2.61378 -7.3361,-2.32874 -10.8929,-4.10714 -2.7978,-1.3989 -7.2097,-2.5 -10.7143,-2.5 -3.6521,0 -11.6355,-1.84455 -14.3351,-4.59431 -1.3515,-1.37656 0.4507,-2.35475 1.1208,-4.69141 0.3512,-0.35119 33.637,10.43158 34.8215,15.89286 z"
         style="fill:#7ab86a;fill-opacity:1;stroke:none" />
    </g>
    <g
       id="g4260">
      <path
         transform="translate(0,452.36218)"
         inkscape:connector-curvature="0"
         id="path4252"
         d="m 394.28571,-18.571429 c 1.32626,44.042526 10,91.216172 10,134.285719 0,68.40885 -7.14285,135.91078 -7.14285,205.71428 0,23.33333 0,46.66667 0,70 0,5.2381 5.23809,15.71429 0,15.71429 -3.0117,0 0.72755,-10.70102 2.85714,-8.57143 3.57936,3.57935 11.42857,15.06197 11.42857,10 C 411.42857,294.67012 410,171.63554 410,54.285714 c 0,-18.844832 6.33229,-81.675774 -15.71429,-72.857143 z"
         style="fill:#e09307;fill-opacity:1;stroke:none" />
      <path
         inkscape:connector-curvature="0"
         id="path4254"
         d="m 387.09375,882.86218 c -10.80353,0.13574 -19.71757,2.12382 -24.25,6.65625 -13.71481,13.71481 1.55192,27.67585 17.15625,34.28125 10.51249,8.41 34.68074,9.08151 47.15625,2.84375 10.91817,-5.45908 26.09649,-3.767 35.6875,-8.5625 25.63065,-12.81533 -37.16595,-35.70352 -75.75,-35.21875 z m 9.625,16.71875 c 11.40047,0.0473 43.04328,22.25201 3.28125,15.625 -9.30585,-11.72331 -8.09478,-15.64496 -3.28125,-15.625 z"
         style="opacity:0.43805309;fill:#ffffff;fill-opacity:1;stroke:none" />
    </g>
  </g>
</svg>
